<svg xmlns="http://www.w3.org/2000/svg" xmlns:xlink="http://www.w3.org/1999/xlink" width="794" zoomAndPan="magnify" viewBox="0 0 594.95996 842.24997" height="1123" preserveAspectRatio="xMidYMid meet" version="1.0"><defs><clipPath id="9bdd848908"><path d="M 0.246094 0 L 594.675781 0 L 594.675781 841.5 L 0.246094 841.5 Z M 0.246094 0 " clip-rule="nonzero"/></clipPath><clipPath id="bea0069f24"><path d="M 294 611 L 594.675781 611 L 594.675781 841.5 L 294 841.5 Z M 294 611 " clip-rule="nonzero"/></clipPath><clipPath id="0f4a21367c"><path d="M 226.175781 542 L 594.675781 542 L 594.675781 841.5 L 226.175781 841.5 Z M 226.175781 542 " clip-rule="nonzero"/></clipPath><clipPath id="5f0eba9c55"><path d="M 477 484 L 594.675781 484 L 594.675781 678 L 477 678 Z M 477 484 " clip-rule="nonzero"/></clipPath><clipPath id="662d72b740"><path d="M 425.429688 0 L 594.675781 0 L 594.675781 83 L 425.429688 83 Z M 425.429688 0 " clip-rule="nonzero"/></clipPath><clipPath id="26a7d124fa"><path d="M 88 0 L 169.675781 0 L 169.675781 80 L 88 80 Z M 88 0 " clip-rule="nonzero"/></clipPath><clipPath id="4322c518d7"><path d="M 0.59375 0 L 128 0 L 128 42 L 0.59375 42 Z M 0.59375 0 " clip-rule="nonzero"/></clipPath><clipPath id="2594d877be"><rect x="0" width="170" y="0" height="83"/></clipPath></defs><g clip-path="url(#9bdd848908)"><path fill="#ffffff" d="M 0.246094 0 L 595.214844 0 L 595.214844 841.5 L 0.246094 841.5 Z M 0.246094 0 " fill-opacity="1" fill-rule="nonzero"/><path fill="#ffffff" d="M 0.246094 0 L 595.214844 0 L 595.214844 841.5 L 0.246094 841.5 Z M 0.246094 0 " fill-opacity="1" fill-rule="nonzero"/></g><g clip-path="url(#bea0069f24)"><path fill="#decdff" d="M 625.15625 611.046875 L 625.15625 941.667969 L 294.535156 941.667969 Z M 625.15625 611.046875 " fill-opacity="1" fill-rule="nonzero"/></g><g clip-path="url(#0f4a21367c)"><path fill="#5f73e5" d="M 625.15625 542.6875 L 625.15625 587.835938 L 271.324219 941.667969 L 226.175781 941.667969 Z M 625.15625 542.6875 " fill-opacity="1" fill-rule="nonzero"/></g><g clip-path="url(#5f0eba9c55)"><path fill="#5f73e5" d="M 625.15625 484.222656 L 625.15625 529.289062 L 477.195312 677.25 L 477.195312 632.105469 Z M 625.15625 484.222656 " fill-opacity="1" fill-rule="nonzero"/></g><path fill="#decdff" d="M 592.757812 172.390625 C 592.757812 172.726562 592.722656 173.058594 592.660156 173.390625 C 592.59375 173.71875 592.496094 174.039062 592.367188 174.351562 C 592.238281 174.660156 592.082031 174.957031 591.894531 175.234375 C 591.707031 175.515625 591.496094 175.773438 591.257812 176.011719 C 591.019531 176.25 590.761719 176.460938 590.480469 176.648438 C 590.203125 176.835938 589.90625 176.992188 589.597656 177.121094 C 589.285156 177.25 588.964844 177.347656 588.636719 177.410156 C 588.308594 177.476562 587.972656 177.511719 587.636719 177.511719 C 587.300781 177.511719 586.96875 177.476562 586.640625 177.410156 C 586.308594 177.347656 585.988281 177.25 585.679688 177.121094 C 585.367188 176.992188 585.074219 176.835938 584.792969 176.648438 C 584.515625 176.460938 584.257812 176.25 584.019531 176.011719 C 583.78125 175.773438 583.570312 175.515625 583.382812 175.234375 C 583.195312 174.957031 583.039062 174.660156 582.910156 174.351562 C 582.78125 174.039062 582.683594 173.71875 582.617188 173.390625 C 582.550781 173.058594 582.519531 172.726562 582.519531 172.390625 C 582.519531 172.054688 582.550781 171.722656 582.617188 171.394531 C 582.683594 171.0625 582.78125 170.742188 582.910156 170.433594 C 583.039062 170.121094 583.195312 169.828125 583.382812 169.546875 C 583.570312 169.269531 583.78125 169.007812 584.019531 168.773438 C 584.257812 168.535156 584.515625 168.320312 584.792969 168.136719 C 585.074219 167.949219 585.367188 167.789062 585.679688 167.664062 C 585.988281 167.535156 586.308594 167.4375 586.640625 167.371094 C 586.96875 167.304688 587.300781 167.273438 587.636719 167.273438 C 587.972656 167.273438 588.308594 167.304688 588.636719 167.371094 C 588.964844 167.4375 589.285156 167.535156 589.597656 167.664062 C 589.90625 167.789062 590.203125 167.949219 590.480469 168.136719 C 590.761719 168.320312 591.019531 168.535156 591.257812 168.773438 C 591.496094 169.007812 591.707031 169.269531 591.894531 169.546875 C 592.082031 169.828125 592.238281 170.121094 592.367188 170.433594 C 592.496094 170.742188 592.59375 171.0625 592.660156 171.394531 C 592.722656 171.722656 592.757812 172.054688 592.757812 172.390625 Z M 592.757812 172.390625 " fill-opacity="1" fill-rule="nonzero"/><path fill="#decdff" d="M 592.757812 147.523438 C 592.757812 147.859375 592.722656 148.195312 592.660156 148.523438 C 592.59375 148.851562 592.496094 149.171875 592.367188 149.484375 C 592.238281 149.792969 592.082031 150.089844 591.894531 150.367188 C 591.707031 150.648438 591.496094 150.90625 591.257812 151.144531 C 591.019531 151.382812 590.761719 151.59375 590.480469 151.78125 C 590.203125 151.96875 589.90625 152.125 589.597656 152.253906 C 589.285156 152.382812 588.964844 152.480469 588.636719 152.546875 C 588.308594 152.609375 587.972656 152.644531 587.636719 152.644531 C 587.300781 152.644531 586.96875 152.609375 586.640625 152.546875 C 586.308594 152.480469 585.988281 152.382812 585.679688 152.253906 C 585.367188 152.125 585.074219 151.96875 584.792969 151.78125 C 584.515625 151.59375 584.257812 151.382812 584.019531 151.144531 C 583.78125 150.90625 583.570312 150.648438 583.382812 150.367188 C 583.195312 150.089844 583.039062 149.792969 582.910156 149.484375 C 582.78125 149.171875 582.683594 148.851562 582.617188 148.523438 C 582.550781 148.195312 582.519531 147.859375 582.519531 147.523438 C 582.519531 147.1875 582.550781 146.855469 582.617188 146.527344 C 582.683594 146.195312 582.78125 145.875 582.910156 145.566406 C 583.039062 145.253906 583.195312 144.960938 583.382812 144.679688 C 583.570312 144.402344 583.78125 144.144531 584.019531 143.90625 C 584.257812 143.667969 584.515625 143.457031 584.792969 143.269531 C 585.074219 143.082031 585.367188 142.925781 585.679688 142.796875 C 585.988281 142.667969 586.308594 142.570312 586.640625 142.503906 C 586.96875 142.4375 587.300781 142.40625 587.636719 142.40625 C 587.972656 142.40625 588.308594 142.4375 588.636719 142.503906 C 588.964844 142.570312 589.285156 142.667969 589.597656 142.796875 C 589.90625 142.925781 590.203125 143.082031 590.480469 143.269531 C 590.761719 143.457031 591.019531 143.667969 591.257812 143.90625 C 591.496094 144.144531 591.707031 144.402344 591.894531 144.679688 C 592.082031 144.960938 592.238281 145.253906 592.367188 145.566406 C 592.496094 145.875 592.59375 146.195312 592.660156 146.527344 C 592.722656 146.855469 592.757812 147.1875 592.757812 147.523438 Z M 592.757812 147.523438 " fill-opacity="1" fill-rule="nonzero"/><path fill="#decdff" d="M 567.488281 147.523438 C 567.488281 147.859375 567.453125 148.195312 567.386719 148.523438 C 567.324219 148.851562 567.226562 149.171875 567.097656 149.484375 C 566.96875 149.792969 566.808594 150.089844 566.625 150.367188 C 566.4375 150.648438 566.226562 150.90625 565.988281 151.144531 C 565.75 151.382812 565.492188 151.59375 565.210938 151.78125 C 564.933594 151.96875 564.636719 152.125 564.328125 152.253906 C 564.015625 152.382812 563.695312 152.480469 563.367188 152.546875 C 563.035156 152.609375 562.703125 152.644531 562.367188 152.644531 C 562.03125 152.644531 561.699219 152.609375 561.367188 152.546875 C 561.039062 152.480469 560.71875 152.382812 560.410156 152.253906 C 560.097656 152.125 559.804688 151.96875 559.523438 151.78125 C 559.246094 151.59375 558.984375 151.382812 558.75 151.144531 C 558.511719 150.90625 558.296875 150.648438 558.113281 150.367188 C 557.925781 150.089844 557.765625 149.792969 557.636719 149.484375 C 557.511719 149.171875 557.414062 148.851562 557.347656 148.523438 C 557.28125 148.195312 557.25 147.859375 557.25 147.523438 C 557.25 147.1875 557.28125 146.855469 557.347656 146.527344 C 557.414062 146.195312 557.511719 145.875 557.636719 145.566406 C 557.765625 145.253906 557.925781 144.960938 558.113281 144.679688 C 558.296875 144.402344 558.511719 144.144531 558.75 143.90625 C 558.984375 143.667969 559.246094 143.457031 559.523438 143.269531 C 559.804688 143.082031 560.097656 142.925781 560.410156 142.796875 C 560.71875 142.667969 561.039062 142.570312 561.367188 142.503906 C 561.699219 142.4375 562.03125 142.40625 562.367188 142.40625 C 562.703125 142.40625 563.035156 142.4375 563.367188 142.503906 C 563.695312 142.570312 564.015625 142.667969 564.328125 142.796875 C 564.636719 142.925781 564.933594 143.082031 565.210938 143.269531 C 565.492188 143.457031 565.75 143.667969 565.988281 143.90625 C 566.226562 144.144531 566.4375 144.402344 566.625 144.679688 C 566.808594 144.960938 566.96875 145.253906 567.097656 145.566406 C 567.226562 145.875 567.324219 146.195312 567.386719 146.527344 C 567.453125 146.855469 567.488281 147.1875 567.488281 147.523438 Z M 567.488281 147.523438 " fill-opacity="1" fill-rule="nonzero"/><path fill="#decdff" d="M 592.757812 122.65625 C 592.757812 122.996094 592.722656 123.328125 592.660156 123.65625 C 592.59375 123.988281 592.496094 124.304688 592.367188 124.617188 C 592.238281 124.925781 592.082031 125.222656 591.894531 125.5 C 591.707031 125.78125 591.496094 126.039062 591.257812 126.277344 C 591.019531 126.515625 590.761719 126.726562 590.480469 126.914062 C 590.203125 127.101562 589.90625 127.257812 589.597656 127.386719 C 589.285156 127.515625 588.964844 127.613281 588.636719 127.679688 C 588.308594 127.742188 587.972656 127.777344 587.636719 127.777344 C 587.300781 127.777344 586.96875 127.742188 586.640625 127.679688 C 586.308594 127.613281 585.988281 127.515625 585.679688 127.386719 C 585.367188 127.257812 585.074219 127.101562 584.792969 126.914062 C 584.515625 126.726562 584.257812 126.515625 584.019531 126.277344 C 583.78125 126.039062 583.570312 125.78125 583.382812 125.5 C 583.195312 125.222656 583.039062 124.925781 582.910156 124.617188 C 582.78125 124.304688 582.683594 123.988281 582.617188 123.65625 C 582.550781 123.328125 582.519531 122.996094 582.519531 122.65625 C 582.519531 122.320312 582.550781 121.988281 582.617188 121.660156 C 582.683594 121.328125 582.78125 121.007812 582.910156 120.699219 C 583.039062 120.386719 583.195312 120.09375 583.382812 119.8125 C 583.570312 119.535156 583.78125 119.277344 584.019531 119.039062 C 584.257812 118.800781 584.515625 118.589844 584.792969 118.402344 C 585.074219 118.214844 585.367188 118.058594 585.679688 117.929688 C 585.988281 117.800781 586.308594 117.703125 586.640625 117.636719 C 586.96875 117.570312 587.300781 117.539062 587.636719 117.539062 C 587.972656 117.539062 588.308594 117.570312 588.636719 117.636719 C 588.964844 117.703125 589.285156 117.800781 589.597656 117.929688 C 589.90625 118.058594 590.203125 118.214844 590.480469 118.402344 C 590.761719 118.589844 591.019531 118.800781 591.257812 119.039062 C 591.496094 119.277344 591.707031 119.535156 591.894531 119.8125 C 592.082031 120.09375 592.238281 120.386719 592.367188 120.699219 C 592.496094 121.007812 592.59375 121.328125 592.660156 121.660156 C 592.722656 121.988281 592.757812 122.320312 592.757812 122.65625 Z M 592.757812 122.65625 " fill-opacity="1" fill-rule="nonzero"/><path fill="#decdff" d="M 567.488281 122.65625 C 567.488281 122.996094 567.453125 123.328125 567.386719 123.65625 C 567.324219 123.988281 567.226562 124.304688 567.097656 124.617188 C 566.96875 124.925781 566.808594 125.222656 566.625 125.5 C 566.4375 125.78125 566.226562 126.039062 565.988281 126.277344 C 565.75 126.515625 565.492188 126.726562 565.210938 126.914062 C 564.933594 127.101562 564.636719 127.257812 564.328125 127.386719 C 564.015625 127.515625 563.695312 127.613281 563.367188 127.679688 C 563.035156 127.742188 562.703125 127.777344 562.367188 127.777344 C 562.03125 127.777344 561.699219 127.742188 561.367188 127.679688 C 561.039062 127.613281 560.71875 127.515625 560.410156 127.386719 C 560.097656 127.257812 559.804688 127.101562 559.523438 126.914062 C 559.246094 126.726562 558.984375 126.515625 558.75 126.277344 C 558.511719 126.039062 558.296875 125.78125 558.113281 125.5 C 557.925781 125.222656 557.765625 124.925781 557.636719 124.617188 C 557.511719 124.304688 557.414062 123.988281 557.347656 123.65625 C 557.28125 123.328125 557.25 122.996094 557.25 122.65625 C 557.25 122.320312 557.28125 121.988281 557.347656 121.660156 C 557.414062 121.328125 557.511719 121.007812 557.636719 120.699219 C 557.765625 120.386719 557.925781 120.09375 558.113281 119.8125 C 558.296875 119.535156 558.511719 119.277344 558.75 119.039062 C 558.984375 118.800781 559.246094 118.589844 559.523438 118.402344 C 559.804688 118.214844 560.097656 118.058594 560.410156 117.929688 C 560.71875 117.800781 561.039062 117.703125 561.367188 117.636719 C 561.699219 117.570312 562.03125 117.539062 562.367188 117.539062 C 562.703125 117.539062 563.035156 117.570312 563.367188 117.636719 C 563.695312 117.703125 564.015625 117.800781 564.328125 117.929688 C 564.636719 118.058594 564.933594 118.214844 565.210938 118.402344 C 565.492188 118.589844 565.75 118.800781 565.988281 119.039062 C 566.226562 119.277344 566.4375 119.535156 566.625 119.8125 C 566.808594 120.09375 566.96875 120.386719 567.097656 120.699219 C 567.226562 121.007812 567.324219 121.328125 567.386719 121.660156 C 567.453125 121.988281 567.488281 122.320312 567.488281 122.65625 Z M 567.488281 122.65625 " fill-opacity="1" fill-rule="nonzero"/><path fill="#decdff" d="M 542.1875 122.65625 C 542.1875 122.996094 542.15625 123.328125 542.089844 123.65625 C 542.023438 123.988281 541.929688 124.304688 541.800781 124.617188 C 541.671875 124.925781 541.511719 125.222656 541.328125 125.5 C 541.140625 125.78125 540.925781 126.039062 540.691406 126.277344 C 540.453125 126.515625 540.195312 126.726562 539.914062 126.914062 C 539.632812 127.101562 539.339844 127.257812 539.027344 127.386719 C 538.71875 127.515625 538.398438 127.613281 538.070312 127.679688 C 537.738281 127.742188 537.40625 127.777344 537.070312 127.777344 C 536.734375 127.777344 536.402344 127.742188 536.070312 127.679688 C 535.742188 127.613281 535.421875 127.515625 535.109375 127.386719 C 534.800781 127.257812 534.503906 127.101562 534.226562 126.914062 C 533.945312 126.726562 533.6875 126.515625 533.449219 126.277344 C 533.210938 126.039062 533 125.78125 532.8125 125.5 C 532.628906 125.222656 532.46875 124.925781 532.339844 124.617188 C 532.210938 124.304688 532.113281 123.988281 532.050781 123.65625 C 531.984375 123.328125 531.953125 122.996094 531.953125 122.65625 C 531.953125 122.320312 531.984375 121.988281 532.050781 121.660156 C 532.113281 121.328125 532.210938 121.007812 532.339844 120.699219 C 532.46875 120.386719 532.628906 120.09375 532.8125 119.8125 C 533 119.535156 533.210938 119.277344 533.449219 119.039062 C 533.6875 118.800781 533.945312 118.589844 534.226562 118.402344 C 534.503906 118.214844 534.800781 118.058594 535.109375 117.929688 C 535.421875 117.800781 535.742188 117.703125 536.070312 117.636719 C 536.402344 117.570312 536.734375 117.539062 537.070312 117.539062 C 537.40625 117.539062 537.738281 117.570312 538.070312 117.636719 C 538.398438 117.703125 538.71875 117.800781 539.027344 117.929688 C 539.339844 118.058594 539.632812 118.214844 539.914062 118.402344 C 540.195312 118.589844 540.453125 118.800781 540.691406 119.039062 C 540.925781 119.277344 541.140625 119.535156 541.328125 119.8125 C 541.511719 120.09375 541.671875 120.386719 541.800781 120.699219 C 541.929688 121.007812 542.023438 121.328125 542.089844 121.660156 C 542.15625 121.988281 542.1875 122.320312 542.1875 122.65625 Z M 542.1875 122.65625 " fill-opacity="1" fill-rule="nonzero"/><path fill="#decdff" d="M 592.757812 97.792969 C 592.757812 98.128906 592.722656 98.460938 592.660156 98.789062 C 592.59375 99.121094 592.496094 99.441406 592.367188 99.75 C 592.238281 100.0625 592.082031 100.355469 591.894531 100.636719 C 591.707031 100.914062 591.496094 101.171875 591.257812 101.410156 C 591.019531 101.648438 590.761719 101.859375 590.480469 102.046875 C 590.203125 102.234375 589.90625 102.390625 589.597656 102.519531 C 589.285156 102.648438 588.964844 102.746094 588.636719 102.8125 C 588.308594 102.878906 587.972656 102.910156 587.636719 102.910156 C 587.300781 102.910156 586.96875 102.878906 586.640625 102.8125 C 586.308594 102.746094 585.988281 102.648438 585.679688 102.519531 C 585.367188 102.390625 585.074219 102.234375 584.792969 102.046875 C 584.515625 101.859375 584.257812 101.648438 584.019531 101.410156 C 583.78125 101.171875 583.570312 100.914062 583.382812 100.636719 C 583.195312 100.355469 583.039062 100.0625 582.910156 99.75 C 582.78125 99.441406 582.683594 99.121094 582.617188 98.789062 C 582.550781 98.460938 582.519531 98.128906 582.519531 97.792969 C 582.519531 97.457031 582.550781 97.121094 582.617188 96.792969 C 582.683594 96.464844 582.78125 96.144531 582.910156 95.832031 C 583.039062 95.523438 583.195312 95.226562 583.382812 94.949219 C 583.570312 94.667969 583.78125 94.410156 584.019531 94.171875 C 584.257812 93.933594 584.515625 93.722656 584.792969 93.535156 C 585.074219 93.347656 585.367188 93.191406 585.679688 93.0625 C 585.988281 92.933594 586.308594 92.835938 586.640625 92.769531 C 586.96875 92.707031 587.300781 92.671875 587.636719 92.671875 C 587.972656 92.671875 588.308594 92.707031 588.636719 92.769531 C 588.964844 92.835938 589.285156 92.933594 589.597656 93.0625 C 589.90625 93.191406 590.203125 93.347656 590.480469 93.535156 C 590.761719 93.722656 591.019531 93.933594 591.257812 94.171875 C 591.496094 94.410156 591.707031 94.667969 591.894531 94.949219 C 592.082031 95.226562 592.238281 95.523438 592.367188 95.832031 C 592.496094 96.144531 592.59375 96.464844 592.660156 96.792969 C 592.722656 97.121094 592.757812 97.457031 592.757812 97.792969 Z M 592.757812 97.792969 " fill-opacity="1" fill-rule="nonzero"/><path fill="#decdff" d="M 567.488281 97.792969 C 567.488281 98.128906 567.453125 98.460938 567.386719 98.789062 C 567.324219 99.121094 567.226562 99.441406 567.097656 99.75 C 566.96875 100.0625 566.808594 100.355469 566.625 100.636719 C 566.4375 100.914062 566.226562 101.171875 565.988281 101.410156 C 565.75 101.648438 565.492188 101.859375 565.210938 102.046875 C 564.933594 102.234375 564.636719 102.390625 564.328125 102.519531 C 564.015625 102.648438 563.695312 102.746094 563.367188 102.8125 C 563.035156 102.878906 562.703125 102.910156 562.367188 102.910156 C 562.03125 102.910156 561.699219 102.878906 561.367188 102.8125 C 561.039062 102.746094 560.71875 102.648438 560.410156 102.519531 C 560.097656 102.390625 559.804688 102.234375 559.523438 102.046875 C 559.246094 101.859375 558.984375 101.648438 558.75 101.410156 C 558.511719 101.171875 558.296875 100.914062 558.113281 100.636719 C 557.925781 100.355469 557.765625 100.0625 557.636719 99.75 C 557.511719 99.441406 557.414062 99.121094 557.347656 98.789062 C 557.28125 98.460938 557.25 98.128906 557.25 97.792969 C 557.25 97.457031 557.28125 97.121094 557.347656 96.792969 C 557.414062 96.464844 557.511719 96.144531 557.636719 95.832031 C 557.765625 95.523438 557.925781 95.226562 558.113281 94.949219 C 558.296875 94.667969 558.511719 94.410156 558.75 94.171875 C 558.984375 93.933594 559.246094 93.722656 559.523438 93.535156 C 559.804688 93.347656 560.097656 93.191406 560.410156 93.0625 C 560.71875 92.933594 561.039062 92.835938 561.367188 92.769531 C 561.699219 92.707031 562.03125 92.671875 562.367188 92.671875 C 562.703125 92.671875 563.035156 92.707031 563.367188 92.769531 C 563.695312 92.835938 564.015625 92.933594 564.328125 93.0625 C 564.636719 93.191406 564.933594 93.347656 565.210938 93.535156 C 565.492188 93.722656 565.75 93.933594 565.988281 94.171875 C 566.226562 94.410156 566.4375 94.667969 566.625 94.949219 C 566.808594 95.226562 566.96875 95.523438 567.097656 95.832031 C 567.226562 96.144531 567.324219 96.464844 567.386719 96.792969 C 567.453125 97.121094 567.488281 97.457031 567.488281 97.792969 Z M 567.488281 97.792969 " fill-opacity="1" fill-rule="nonzero"/><path fill="#decdff" d="M 542.1875 97.792969 C 542.1875 98.128906 542.15625 98.460938 542.089844 98.789062 C 542.023438 99.121094 541.929688 99.441406 541.800781 99.75 C 541.671875 100.0625 541.511719 100.355469 541.328125 100.636719 C 541.140625 100.914062 540.925781 101.171875 540.691406 101.410156 C 540.453125 101.648438 540.195312 101.859375 539.914062 102.046875 C 539.632812 102.234375 539.339844 102.390625 539.027344 102.519531 C 538.71875 102.648438 538.398438 102.746094 538.070312 102.8125 C 537.738281 102.878906 537.40625 102.910156 537.070312 102.910156 C 536.734375 102.910156 536.402344 102.878906 536.070312 102.8125 C 535.742188 102.746094 535.421875 102.648438 535.109375 102.519531 C 534.800781 102.390625 534.503906 102.234375 534.226562 102.046875 C 533.945312 101.859375 533.6875 101.648438 533.449219 101.410156 C 533.210938 101.171875 533 100.914062 532.8125 100.636719 C 532.628906 100.355469 532.46875 100.0625 532.339844 99.75 C 532.210938 99.441406 532.113281 99.121094 532.050781 98.789062 C 531.984375 98.460938 531.953125 98.128906 531.953125 97.792969 C 531.953125 97.457031 531.984375 97.121094 532.050781 96.792969 C 532.113281 96.464844 532.210938 96.144531 532.339844 95.832031 C 532.46875 95.523438 532.628906 95.226562 532.8125 94.949219 C 533 94.667969 533.210938 94.410156 533.449219 94.171875 C 533.6875 93.933594 533.945312 93.722656 534.226562 93.535156 C 534.503906 93.347656 534.800781 93.191406 535.109375 93.0625 C 535.421875 92.933594 535.742188 92.835938 536.070312 92.769531 C 536.402344 92.707031 536.734375 92.671875 537.070312 92.671875 C 537.40625 92.671875 537.738281 92.707031 538.070312 92.769531 C 538.398438 92.835938 538.71875 92.933594 539.027344 93.0625 C 539.339844 93.191406 539.632812 93.347656 539.914062 93.535156 C 540.195312 93.722656 540.453125 93.933594 540.691406 94.171875 C 540.925781 94.410156 541.140625 94.667969 541.328125 94.949219 C 541.511719 95.226562 541.671875 95.523438 541.800781 95.832031 C 541.929688 96.144531 542.023438 96.464844 542.089844 96.792969 C 542.15625 97.121094 542.1875 97.457031 542.1875 97.792969 Z M 542.1875 97.792969 " fill-opacity="1" fill-rule="nonzero"/><path fill="#decdff" d="M 516.890625 97.792969 C 516.890625 98.128906 516.859375 98.460938 516.792969 98.789062 C 516.726562 99.121094 516.628906 99.441406 516.5 99.75 C 516.371094 100.0625 516.214844 100.355469 516.027344 100.636719 C 515.839844 100.914062 515.628906 101.171875 515.390625 101.410156 C 515.152344 101.648438 514.894531 101.859375 514.617188 102.046875 C 514.335938 102.234375 514.042969 102.390625 513.730469 102.519531 C 513.421875 102.648438 513.101562 102.746094 512.769531 102.8125 C 512.441406 102.878906 512.109375 102.910156 511.773438 102.910156 C 511.4375 102.910156 511.101562 102.878906 510.773438 102.8125 C 510.445312 102.746094 510.125 102.648438 509.8125 102.519531 C 509.503906 102.390625 509.207031 102.234375 508.929688 102.046875 C 508.648438 101.859375 508.390625 101.648438 508.152344 101.410156 C 507.914062 101.171875 507.703125 100.914062 507.515625 100.636719 C 507.328125 100.355469 507.171875 100.0625 507.042969 99.75 C 506.914062 99.441406 506.816406 99.121094 506.753906 98.789062 C 506.6875 98.460938 506.652344 98.128906 506.652344 97.792969 C 506.652344 97.457031 506.6875 97.121094 506.753906 96.792969 C 506.816406 96.464844 506.914062 96.144531 507.042969 95.832031 C 507.171875 95.523438 507.328125 95.226562 507.515625 94.949219 C 507.703125 94.667969 507.914062 94.410156 508.152344 94.171875 C 508.390625 93.933594 508.648438 93.722656 508.929688 93.535156 C 509.207031 93.347656 509.503906 93.191406 509.8125 93.0625 C 510.125 92.933594 510.445312 92.835938 510.773438 92.769531 C 511.101562 92.707031 511.4375 92.671875 511.773438 92.671875 C 512.109375 92.671875 512.441406 92.707031 512.769531 92.769531 C 513.101562 92.835938 513.421875 92.933594 513.730469 93.0625 C 514.042969 93.191406 514.335938 93.347656 514.617188 93.535156 C 514.894531 93.722656 515.152344 93.933594 515.390625 94.171875 C 515.628906 94.410156 515.839844 94.667969 516.027344 94.949219 C 516.214844 95.226562 516.371094 95.523438 516.5 95.832031 C 516.628906 96.144531 516.726562 96.464844 516.792969 96.792969 C 516.859375 97.121094 516.890625 97.457031 516.890625 97.792969 Z M 516.890625 97.792969 " fill-opacity="1" fill-rule="nonzero"/><path fill="#decdff" d="M 592.757812 72.953125 C 592.757812 73.289062 592.722656 73.621094 592.660156 73.949219 C 592.59375 74.28125 592.496094 74.601562 592.367188 74.910156 C 592.238281 75.222656 592.082031 75.515625 591.894531 75.796875 C 591.707031 76.074219 591.496094 76.332031 591.257812 76.570312 C 591.019531 76.808594 590.761719 77.019531 590.480469 77.207031 C 590.203125 77.394531 589.90625 77.550781 589.597656 77.679688 C 589.285156 77.808594 588.964844 77.90625 588.636719 77.972656 C 588.308594 78.039062 587.972656 78.070312 587.636719 78.070312 C 587.300781 78.070312 586.96875 78.039062 586.640625 77.972656 C 586.308594 77.90625 585.988281 77.808594 585.679688 77.679688 C 585.367188 77.550781 585.074219 77.394531 584.792969 77.207031 C 584.515625 77.019531 584.257812 76.808594 584.019531 76.570312 C 583.78125 76.332031 583.570312 76.074219 583.382812 75.796875 C 583.195312 75.515625 583.039062 75.222656 582.910156 74.910156 C 582.78125 74.601562 582.683594 74.28125 582.617188 73.949219 C 582.550781 73.621094 582.519531 73.289062 582.519531 72.953125 C 582.519531 72.617188 582.550781 72.28125 582.617188 71.953125 C 582.683594 71.625 582.78125 71.304688 582.910156 70.992188 C 583.039062 70.683594 583.195312 70.386719 583.382812 70.109375 C 583.570312 69.828125 583.78125 69.570312 584.019531 69.332031 C 584.257812 69.09375 584.515625 68.882812 584.792969 68.695312 C 585.074219 68.507812 585.367188 68.351562 585.679688 68.222656 C 585.988281 68.09375 586.308594 67.996094 586.640625 67.929688 C 586.96875 67.867188 587.300781 67.832031 587.636719 67.832031 C 587.972656 67.832031 588.308594 67.867188 588.636719 67.929688 C 588.964844 67.996094 589.285156 68.09375 589.597656 68.222656 C 589.90625 68.351562 590.203125 68.507812 590.480469 68.695312 C 590.761719 68.882812 591.019531 69.09375 591.257812 69.332031 C 591.496094 69.570312 591.707031 69.828125 591.894531 70.109375 C 592.082031 70.386719 592.238281 70.683594 592.367188 70.992188 C 592.496094 71.304688 592.59375 71.625 592.660156 71.953125 C 592.722656 72.28125 592.757812 72.617188 592.757812 72.953125 Z M 592.757812 72.953125 " fill-opacity="1" fill-rule="nonzero"/><path fill="#decdff" d="M 567.488281 72.953125 C 567.488281 73.289062 567.453125 73.621094 567.386719 73.949219 C 567.324219 74.28125 567.226562 74.601562 567.097656 74.910156 C 566.96875 75.222656 566.808594 75.515625 566.625 75.796875 C 566.4375 76.074219 566.226562 76.332031 565.988281 76.570312 C 565.75 76.808594 565.492188 77.019531 565.210938 77.207031 C 564.933594 77.394531 564.636719 77.550781 564.328125 77.679688 C 564.015625 77.808594 563.695312 77.90625 563.367188 77.972656 C 563.035156 78.039062 562.703125 78.070312 562.367188 78.070312 C 562.03125 78.070312 561.699219 78.039062 561.367188 77.972656 C 561.039062 77.90625 560.71875 77.808594 560.410156 77.679688 C 560.097656 77.550781 559.804688 77.394531 559.523438 77.207031 C 559.246094 77.019531 558.984375 76.808594 558.75 76.570312 C 558.511719 76.332031 558.296875 76.074219 558.113281 75.796875 C 557.925781 75.515625 557.765625 75.222656 557.636719 74.910156 C 557.511719 74.601562 557.414062 74.28125 557.347656 73.949219 C 557.28125 73.621094 557.25 73.289062 557.25 72.953125 C 557.25 72.617188 557.28125 72.28125 557.347656 71.953125 C 557.414062 71.625 557.511719 71.304688 557.636719 70.992188 C 557.765625 70.683594 557.925781 70.386719 558.113281 70.109375 C 558.296875 69.828125 558.511719 69.570312 558.75 69.332031 C 558.984375 69.09375 559.246094 68.882812 559.523438 68.695312 C 559.804688 68.507812 560.097656 68.351562 560.410156 68.222656 C 560.71875 68.09375 561.039062 67.996094 561.367188 67.929688 C 561.699219 67.867188 562.03125 67.832031 562.367188 67.832031 C 562.703125 67.832031 563.035156 67.867188 563.367188 67.929688 C 563.695312 67.996094 564.015625 68.09375 564.328125 68.222656 C 564.636719 68.351562 564.933594 68.507812 565.210938 68.695312 C 565.492188 68.882812 565.75 69.09375 565.988281 69.332031 C 566.226562 69.570312 566.4375 69.828125 566.625 70.109375 C 566.808594 70.386719 566.96875 70.683594 567.097656 70.992188 C 567.226562 71.304688 567.324219 71.625 567.386719 71.953125 C 567.453125 72.28125 567.488281 72.617188 567.488281 72.953125 Z M 567.488281 72.953125 " fill-opacity="1" fill-rule="nonzero"/><path fill="#decdff" d="M 542.1875 72.953125 C 542.1875 73.289062 542.15625 73.621094 542.089844 73.949219 C 542.023438 74.28125 541.929688 74.601562 541.800781 74.910156 C 541.671875 75.222656 541.511719 75.515625 541.328125 75.796875 C 541.140625 76.074219 540.925781 76.332031 540.691406 76.570312 C 540.453125 76.808594 540.195312 77.019531 539.914062 77.207031 C 539.632812 77.394531 539.339844 77.550781 539.027344 77.679688 C 538.71875 77.808594 538.398438 77.90625 538.070312 77.972656 C 537.738281 78.039062 537.40625 78.070312 537.070312 78.070312 C 536.734375 78.070312 536.402344 78.039062 536.070312 77.972656 C 535.742188 77.90625 535.421875 77.808594 535.109375 77.679688 C 534.800781 77.550781 534.503906 77.394531 534.226562 77.207031 C 533.945312 77.019531 533.6875 76.808594 533.449219 76.570312 C 533.210938 76.332031 533 76.074219 532.8125 75.796875 C 532.628906 75.515625 532.46875 75.222656 532.339844 74.910156 C 532.210938 74.601562 532.113281 74.28125 532.050781 73.949219 C 531.984375 73.621094 531.953125 73.289062 531.953125 72.953125 C 531.953125 72.617188 531.984375 72.28125 532.050781 71.953125 C 532.113281 71.625 532.210938 71.304688 532.339844 70.992188 C 532.46875 70.683594 532.628906 70.386719 532.8125 70.109375 C 533 69.828125 533.210938 69.570312 533.449219 69.332031 C 533.6875 69.09375 533.945312 68.882812 534.226562 68.695312 C 534.503906 68.507812 534.800781 68.351562 535.109375 68.222656 C 535.421875 68.09375 535.742188 67.996094 536.070312 67.929688 C 536.402344 67.867188 536.734375 67.832031 537.070312 67.832031 C 537.40625 67.832031 537.738281 67.867188 538.070312 67.929688 C 538.398438 67.996094 538.71875 68.09375 539.027344 68.222656 C 539.339844 68.351562 539.632812 68.507812 539.914062 68.695312 C 540.195312 68.882812 540.453125 69.09375 540.691406 69.332031 C 540.925781 69.570312 541.140625 69.828125 541.328125 70.109375 C 541.511719 70.386719 541.671875 70.683594 541.800781 70.992188 C 541.929688 71.304688 542.023438 71.625 542.089844 71.953125 C 542.15625 72.28125 542.1875 72.617188 542.1875 72.953125 Z M 542.1875 72.953125 " fill-opacity="1" fill-rule="nonzero"/><path fill="#decdff" d="M 516.890625 72.953125 C 516.890625 73.289062 516.859375 73.621094 516.792969 73.949219 C 516.726562 74.28125 516.628906 74.601562 516.5 74.910156 C 516.371094 75.222656 516.214844 75.515625 516.027344 75.796875 C 515.839844 76.074219 515.628906 76.332031 515.390625 76.570312 C 515.152344 76.808594 514.894531 77.019531 514.617188 77.207031 C 514.335938 77.394531 514.042969 77.550781 513.730469 77.679688 C 513.421875 77.808594 513.101562 77.90625 512.769531 77.972656 C 512.441406 78.039062 512.109375 78.070312 511.773438 78.070312 C 511.4375 78.070312 511.101562 78.039062 510.773438 77.972656 C 510.445312 77.90625 510.125 77.808594 509.8125 77.679688 C 509.503906 77.550781 509.207031 77.394531 508.929688 77.207031 C 508.648438 77.019531 508.390625 76.808594 508.152344 76.570312 C 507.914062 76.332031 507.703125 76.074219 507.515625 75.796875 C 507.328125 75.515625 507.171875 75.222656 507.042969 74.910156 C 506.914062 74.601562 506.816406 74.28125 506.753906 73.949219 C 506.6875 73.621094 506.652344 73.289062 506.652344 72.953125 C 506.652344 72.617188 506.6875 72.28125 506.753906 71.953125 C 506.816406 71.625 506.914062 71.304688 507.042969 70.992188 C 507.171875 70.683594 507.328125 70.386719 507.515625 70.109375 C 507.703125 69.828125 507.914062 69.570312 508.152344 69.332031 C 508.390625 69.09375 508.648438 68.882812 508.929688 68.695312 C 509.207031 68.507812 509.503906 68.351562 509.8125 68.222656 C 510.125 68.09375 510.445312 67.996094 510.773438 67.929688 C 511.101562 67.867188 511.4375 67.832031 511.773438 67.832031 C 512.109375 67.832031 512.441406 67.867188 512.769531 67.929688 C 513.101562 67.996094 513.421875 68.09375 513.730469 68.222656 C 514.042969 68.351562 514.335938 68.507812 514.617188 68.695312 C 514.894531 68.882812 515.152344 69.09375 515.390625 69.332031 C 515.628906 69.570312 515.839844 69.828125 516.027344 70.109375 C 516.214844 70.386719 516.371094 70.683594 516.5 70.992188 C 516.628906 71.304688 516.726562 71.625 516.792969 71.953125 C 516.859375 72.28125 516.890625 72.617188 516.890625 72.953125 Z M 516.890625 72.953125 " fill-opacity="1" fill-rule="nonzero"/><path fill="#decdff" d="M 491.621094 72.953125 C 491.621094 73.289062 491.585938 73.621094 491.523438 73.949219 C 491.457031 74.28125 491.359375 74.601562 491.230469 74.910156 C 491.101562 75.222656 490.945312 75.515625 490.757812 75.796875 C 490.570312 76.074219 490.359375 76.332031 490.121094 76.570312 C 489.882812 76.808594 489.625 77.019531 489.34375 77.207031 C 489.066406 77.394531 488.769531 77.550781 488.460938 77.679688 C 488.148438 77.808594 487.828125 77.90625 487.5 77.972656 C 487.171875 78.039062 486.835938 78.070312 486.5 78.070312 C 486.164062 78.070312 485.832031 78.039062 485.503906 77.972656 C 485.171875 77.90625 484.851562 77.808594 484.542969 77.679688 C 484.230469 77.550781 483.9375 77.394531 483.65625 77.207031 C 483.378906 77.019531 483.121094 76.808594 482.882812 76.570312 C 482.644531 76.332031 482.433594 76.074219 482.246094 75.796875 C 482.058594 75.515625 481.902344 75.222656 481.773438 74.910156 C 481.644531 74.601562 481.546875 74.28125 481.480469 73.949219 C 481.414062 73.621094 481.382812 73.289062 481.382812 72.953125 C 481.382812 72.617188 481.414062 72.28125 481.480469 71.953125 C 481.546875 71.625 481.644531 71.304688 481.773438 70.992188 C 481.902344 70.683594 482.058594 70.386719 482.246094 70.109375 C 482.433594 69.828125 482.644531 69.570312 482.882812 69.332031 C 483.121094 69.09375 483.378906 68.882812 483.65625 68.695312 C 483.9375 68.507812 484.230469 68.351562 484.542969 68.222656 C 484.851562 68.09375 485.171875 67.996094 485.503906 67.929688 C 485.832031 67.867188 486.164062 67.832031 486.5 67.832031 C 486.835938 67.832031 487.171875 67.867188 487.5 67.929688 C 487.828125 67.996094 488.148438 68.09375 488.460938 68.222656 C 488.769531 68.351562 489.066406 68.507812 489.34375 68.695312 C 489.625 68.882812 489.882812 69.09375 490.121094 69.332031 C 490.359375 69.570312 490.570312 69.828125 490.757812 70.109375 C 490.945312 70.386719 491.101562 70.683594 491.230469 70.992188 C 491.359375 71.304688 491.457031 71.625 491.523438 71.953125 C 491.585938 72.28125 491.621094 72.617188 491.621094 72.953125 Z M 491.621094 72.953125 " fill-opacity="1" fill-rule="nonzero"/><path fill="#decdff" d="M 592.757812 48.085938 C 592.757812 48.421875 592.722656 48.753906 592.660156 49.082031 C 592.59375 49.414062 592.496094 49.734375 592.367188 50.042969 C 592.238281 50.355469 592.082031 50.648438 591.894531 50.929688 C 591.707031 51.207031 591.496094 51.46875 591.257812 51.703125 C 591.019531 51.941406 590.761719 52.15625 590.480469 52.339844 C 590.203125 52.527344 589.90625 52.6875 589.597656 52.8125 C 589.285156 52.941406 588.964844 53.039062 588.636719 53.105469 C 588.308594 53.171875 587.972656 53.203125 587.636719 53.203125 C 587.300781 53.203125 586.96875 53.171875 586.640625 53.105469 C 586.308594 53.039062 585.988281 52.941406 585.679688 52.8125 C 585.367188 52.6875 585.074219 52.527344 584.792969 52.339844 C 584.515625 52.15625 584.257812 51.941406 584.019531 51.703125 C 583.78125 51.46875 583.570312 51.207031 583.382812 50.929688 C 583.195312 50.648438 583.039062 50.355469 582.910156 50.042969 C 582.78125 49.734375 582.683594 49.414062 582.617188 49.082031 C 582.550781 48.753906 582.519531 48.421875 582.519531 48.085938 C 582.519531 47.75 582.550781 47.417969 582.617188 47.085938 C 582.683594 46.757812 582.78125 46.4375 582.910156 46.125 C 583.039062 45.816406 583.195312 45.519531 583.382812 45.242188 C 583.570312 44.960938 583.78125 44.703125 584.019531 44.464844 C 584.257812 44.226562 584.515625 44.015625 584.792969 43.828125 C 585.074219 43.640625 585.367188 43.484375 585.679688 43.355469 C 585.988281 43.226562 586.308594 43.128906 586.640625 43.066406 C 586.96875 43 587.300781 42.964844 587.636719 42.964844 C 587.972656 42.964844 588.308594 43 588.636719 43.066406 C 588.964844 43.128906 589.285156 43.226562 589.597656 43.355469 C 589.90625 43.484375 590.203125 43.640625 590.480469 43.828125 C 590.761719 44.015625 591.019531 44.226562 591.257812 44.464844 C 591.496094 44.703125 591.707031 44.960938 591.894531 45.242188 C 592.082031 45.519531 592.238281 45.816406 592.367188 46.125 C 592.496094 46.4375 592.59375 46.757812 592.660156 47.085938 C 592.722656 47.417969 592.757812 47.75 592.757812 48.085938 Z M 592.757812 48.085938 " fill-opacity="1" fill-rule="nonzero"/><path fill="#decdff" d="M 567.488281 48.085938 C 567.488281 48.421875 567.453125 48.753906 567.386719 49.082031 C 567.324219 49.414062 567.226562 49.734375 567.097656 50.042969 C 566.96875 50.355469 566.808594 50.648438 566.625 50.929688 C 566.4375 51.207031 566.226562 51.46875 565.988281 51.703125 C 565.75 51.941406 565.492188 52.15625 565.210938 52.339844 C 564.933594 52.527344 564.636719 52.6875 564.328125 52.8125 C 564.015625 52.941406 563.695312 53.039062 563.367188 53.105469 C 563.035156 53.171875 562.703125 53.203125 562.367188 53.203125 C 562.03125 53.203125 561.699219 53.171875 561.367188 53.105469 C 561.039062 53.039062 560.71875 52.941406 560.410156 52.8125 C 560.097656 52.6875 559.804688 52.527344 559.523438 52.339844 C 559.246094 52.15625 558.984375 51.941406 558.75 51.703125 C 558.511719 51.46875 558.296875 51.207031 558.113281 50.929688 C 557.925781 50.648438 557.765625 50.355469 557.636719 50.042969 C 557.511719 49.734375 557.414062 49.414062 557.347656 49.082031 C 557.28125 48.753906 557.25 48.421875 557.25 48.085938 C 557.25 47.75 557.28125 47.417969 557.347656 47.085938 C 557.414062 46.757812 557.511719 46.4375 557.636719 46.125 C 557.765625 45.816406 557.925781 45.519531 558.113281 45.242188 C 558.296875 44.960938 558.511719 44.703125 558.75 44.464844 C 558.984375 44.226562 559.246094 44.015625 559.523438 43.828125 C 559.804688 43.640625 560.097656 43.484375 560.410156 43.355469 C 560.71875 43.226562 561.039062 43.128906 561.367188 43.066406 C 561.699219 43 562.03125 42.964844 562.367188 42.964844 C 562.703125 42.964844 563.035156 43 563.367188 43.066406 C 563.695312 43.128906 564.015625 43.226562 564.328125 43.355469 C 564.636719 43.484375 564.933594 43.640625 565.210938 43.828125 C 565.492188 44.015625 565.75 44.226562 565.988281 44.464844 C 566.226562 44.703125 566.4375 44.960938 566.625 45.242188 C 566.808594 45.519531 566.96875 45.816406 567.097656 46.125 C 567.226562 46.4375 567.324219 46.757812 567.386719 47.085938 C 567.453125 47.417969 567.488281 47.75 567.488281 48.085938 Z M 567.488281 48.085938 " fill-opacity="1" fill-rule="nonzero"/><path fill="#decdff" d="M 542.1875 48.085938 C 542.1875 48.421875 542.15625 48.753906 542.089844 49.082031 C 542.023438 49.414062 541.929688 49.734375 541.800781 50.042969 C 541.671875 50.355469 541.511719 50.648438 541.328125 50.929688 C 541.140625 51.207031 540.925781 51.46875 540.691406 51.703125 C 540.453125 51.941406 540.195312 52.15625 539.914062 52.339844 C 539.632812 52.527344 539.339844 52.6875 539.027344 52.8125 C 538.71875 52.941406 538.398438 53.039062 538.070312 53.105469 C 537.738281 53.171875 537.40625 53.203125 537.070312 53.203125 C 536.734375 53.203125 536.402344 53.171875 536.070312 53.105469 C 535.742188 53.039062 535.421875 52.941406 535.109375 52.8125 C 534.800781 52.6875 534.503906 52.527344 534.226562 52.339844 C 533.945312 52.15625 533.6875 51.941406 533.449219 51.703125 C 533.210938 51.46875 533 51.207031 532.8125 50.929688 C 532.628906 50.648438 532.46875 50.355469 532.339844 50.042969 C 532.210938 49.734375 532.113281 49.414062 532.050781 49.082031 C 531.984375 48.753906 531.953125 48.421875 531.953125 48.085938 C 531.953125 47.75 531.984375 47.417969 532.050781 47.085938 C 532.113281 46.757812 532.210938 46.4375 532.339844 46.125 C 532.46875 45.816406 532.628906 45.519531 532.8125 45.242188 C 533 44.960938 533.210938 44.703125 533.449219 44.464844 C 533.6875 44.226562 533.945312 44.015625 534.226562 43.828125 C 534.503906 43.640625 534.800781 43.484375 535.109375 43.355469 C 535.421875 43.226562 535.742188 43.128906 536.070312 43.066406 C 536.402344 43 536.734375 42.964844 537.070312 42.964844 C 537.40625 42.964844 537.738281 43 538.070312 43.066406 C 538.398438 43.128906 538.71875 43.226562 539.027344 43.355469 C 539.339844 43.484375 539.632812 43.640625 539.914062 43.828125 C 540.195312 44.015625 540.453125 44.226562 540.691406 44.464844 C 540.925781 44.703125 541.140625 44.960938 541.328125 45.242188 C 541.511719 45.519531 541.671875 45.816406 541.800781 46.125 C 541.929688 46.4375 542.023438 46.757812 542.089844 47.085938 C 542.15625 47.417969 542.1875 47.75 542.1875 48.085938 Z M 542.1875 48.085938 " fill-opacity="1" fill-rule="nonzero"/><path fill="#decdff" d="M 516.890625 48.085938 C 516.890625 48.421875 516.859375 48.753906 516.792969 49.082031 C 516.726562 49.414062 516.628906 49.734375 516.5 50.042969 C 516.371094 50.355469 516.214844 50.648438 516.027344 50.929688 C 515.839844 51.207031 515.628906 51.46875 515.390625 51.703125 C 515.152344 51.941406 514.894531 52.15625 514.617188 52.339844 C 514.335938 52.527344 514.042969 52.6875 513.730469 52.8125 C 513.421875 52.941406 513.101562 53.039062 512.769531 53.105469 C 512.441406 53.171875 512.109375 53.203125 511.773438 53.203125 C 511.4375 53.203125 511.101562 53.171875 510.773438 53.105469 C 510.445312 53.039062 510.125 52.941406 509.8125 52.8125 C 509.503906 52.6875 509.207031 52.527344 508.929688 52.339844 C 508.648438 52.15625 508.390625 51.941406 508.152344 51.703125 C 507.914062 51.46875 507.703125 51.207031 507.515625 50.929688 C 507.328125 50.648438 507.171875 50.355469 507.042969 50.042969 C 506.914062 49.734375 506.816406 49.414062 506.753906 49.082031 C 506.6875 48.753906 506.652344 48.421875 506.652344 48.085938 C 506.652344 47.75 506.6875 47.417969 506.753906 47.085938 C 506.816406 46.757812 506.914062 46.4375 507.042969 46.125 C 507.171875 45.816406 507.328125 45.519531 507.515625 45.242188 C 507.703125 44.960938 507.914062 44.703125 508.152344 44.464844 C 508.390625 44.226562 508.648438 44.015625 508.929688 43.828125 C 509.207031 43.640625 509.503906 43.484375 509.8125 43.355469 C 510.125 43.226562 510.445312 43.128906 510.773438 43.066406 C 511.101562 43 511.4375 42.964844 511.773438 42.964844 C 512.109375 42.964844 512.441406 43 512.769531 43.066406 C 513.101562 43.128906 513.421875 43.226562 513.730469 43.355469 C 514.042969 43.484375 514.335938 43.640625 514.617188 43.828125 C 514.894531 44.015625 515.152344 44.226562 515.390625 44.464844 C 515.628906 44.703125 515.839844 44.960938 516.027344 45.242188 C 516.214844 45.519531 516.371094 45.816406 516.5 46.125 C 516.628906 46.4375 516.726562 46.757812 516.792969 47.085938 C 516.859375 47.417969 516.890625 47.75 516.890625 48.085938 Z M 516.890625 48.085938 " fill-opacity="1" fill-rule="nonzero"/><path fill="#decdff" d="M 491.621094 48.085938 C 491.621094 48.421875 491.585938 48.753906 491.523438 49.082031 C 491.457031 49.414062 491.359375 49.734375 491.230469 50.042969 C 491.101562 50.355469 490.945312 50.648438 490.757812 50.929688 C 490.570312 51.207031 490.359375 51.46875 490.121094 51.703125 C 489.882812 51.941406 489.625 52.15625 489.34375 52.339844 C 489.066406 52.527344 488.769531 52.6875 488.460938 52.8125 C 488.148438 52.941406 487.828125 53.039062 487.5 53.105469 C 487.171875 53.171875 486.835938 53.203125 486.5 53.203125 C 486.164062 53.203125 485.832031 53.171875 485.503906 53.105469 C 485.171875 53.039062 484.851562 52.941406 484.542969 52.8125 C 484.230469 52.6875 483.9375 52.527344 483.65625 52.339844 C 483.378906 52.15625 483.121094 51.941406 482.882812 51.703125 C 482.644531 51.46875 482.433594 51.207031 482.246094 50.929688 C 482.058594 50.648438 481.902344 50.355469 481.773438 50.042969 C 481.644531 49.734375 481.546875 49.414062 481.480469 49.082031 C 481.414062 48.753906 481.382812 48.421875 481.382812 48.085938 C 481.382812 47.75 481.414062 47.417969 481.480469 47.085938 C 481.546875 46.757812 481.644531 46.4375 481.773438 46.125 C 481.902344 45.816406 482.058594 45.519531 482.246094 45.242188 C 482.433594 44.960938 482.644531 44.703125 482.882812 44.464844 C 483.121094 44.226562 483.378906 44.015625 483.65625 43.828125 C 483.9375 43.640625 484.230469 43.484375 484.542969 43.355469 C 484.851562 43.226562 485.171875 43.128906 485.503906 43.066406 C 485.832031 43 486.164062 42.964844 486.5 42.964844 C 486.835938 42.964844 487.171875 43 487.5 43.066406 C 487.828125 43.128906 488.148438 43.226562 488.460938 43.355469 C 488.769531 43.484375 489.066406 43.640625 489.34375 43.828125 C 489.625 44.015625 489.882812 44.226562 490.121094 44.464844 C 490.359375 44.703125 490.570312 44.960938 490.757812 45.242188 C 490.945312 45.519531 491.101562 45.816406 491.230469 46.125 C 491.359375 46.4375 491.457031 46.757812 491.523438 47.085938 C 491.585938 47.417969 491.621094 47.75 491.621094 48.085938 Z M 491.621094 48.085938 " fill-opacity="1" fill-rule="nonzero"/><path fill="#decdff" d="M 466.324219 48.085938 C 466.324219 48.421875 466.289062 48.753906 466.222656 49.082031 C 466.160156 49.414062 466.0625 49.734375 465.933594 50.042969 C 465.804688 50.355469 465.648438 50.648438 465.460938 50.929688 C 465.273438 51.207031 465.0625 51.46875 464.824219 51.703125 C 464.585938 51.941406 464.328125 52.15625 464.046875 52.339844 C 463.769531 52.527344 463.472656 52.6875 463.164062 52.8125 C 462.851562 52.941406 462.53125 53.039062 462.203125 53.105469 C 461.871094 53.171875 461.539062 53.203125 461.203125 53.203125 C 460.867188 53.203125 460.535156 53.171875 460.207031 53.105469 C 459.875 53.039062 459.554688 52.941406 459.246094 52.8125 C 458.933594 52.6875 458.640625 52.527344 458.359375 52.339844 C 458.082031 52.15625 457.820312 51.941406 457.585938 51.703125 C 457.347656 51.46875 457.132812 51.207031 456.949219 50.929688 C 456.761719 50.648438 456.601562 50.355469 456.476562 50.042969 C 456.347656 49.734375 456.25 49.414062 456.183594 49.082031 C 456.117188 48.753906 456.085938 48.421875 456.085938 48.085938 C 456.085938 47.75 456.117188 47.417969 456.183594 47.085938 C 456.25 46.757812 456.347656 46.4375 456.476562 46.125 C 456.601562 45.816406 456.761719 45.519531 456.949219 45.242188 C 457.132812 44.960938 457.347656 44.703125 457.585938 44.464844 C 457.820312 44.226562 458.082031 44.015625 458.359375 43.828125 C 458.640625 43.640625 458.933594 43.484375 459.246094 43.355469 C 459.554688 43.226562 459.875 43.128906 460.207031 43.066406 C 460.535156 43 460.867188 42.964844 461.203125 42.964844 C 461.539062 42.964844 461.871094 43 462.203125 43.066406 C 462.53125 43.128906 462.851562 43.226562 463.164062 43.355469 C 463.472656 43.484375 463.769531 43.640625 464.046875 43.828125 C 464.328125 44.015625 464.585938 44.226562 464.824219 44.464844 C 465.0625 44.703125 465.273438 44.960938 465.460938 45.242188 C 465.648438 45.519531 465.804688 45.816406 465.933594 46.125 C 466.0625 46.4375 466.160156 46.757812 466.222656 47.085938 C 466.289062 47.417969 466.324219 47.75 466.324219 48.085938 Z M 466.324219 48.085938 " fill-opacity="1" fill-rule="nonzero"/><path fill="#decdff" d="M 592.757812 23.21875 C 592.757812 23.554688 592.722656 23.886719 592.660156 24.21875 C 592.59375 24.546875 592.496094 24.867188 592.367188 25.175781 C 592.238281 25.488281 592.082031 25.78125 591.894531 26.0625 C 591.707031 26.34375 591.496094 26.601562 591.257812 26.839844 C 591.019531 27.074219 590.761719 27.289062 590.480469 27.476562 C 590.203125 27.660156 589.90625 27.820312 589.597656 27.949219 C 589.285156 28.078125 588.964844 28.171875 588.636719 28.238281 C 588.308594 28.304688 587.972656 28.335938 587.636719 28.335938 C 587.300781 28.335938 586.96875 28.304688 586.640625 28.238281 C 586.308594 28.171875 585.988281 28.078125 585.679688 27.949219 C 585.367188 27.820312 585.074219 27.660156 584.792969 27.476562 C 584.515625 27.289062 584.257812 27.074219 584.019531 26.839844 C 583.78125 26.601562 583.570312 26.34375 583.382812 26.0625 C 583.195312 25.78125 583.039062 25.488281 582.910156 25.175781 C 582.78125 24.867188 582.683594 24.546875 582.617188 24.21875 C 582.550781 23.886719 582.519531 23.554688 582.519531 23.21875 C 582.519531 22.882812 582.550781 22.550781 582.617188 22.21875 C 582.683594 21.890625 582.78125 21.570312 582.910156 21.257812 C 583.039062 20.949219 583.195312 20.652344 583.382812 20.375 C 583.570312 20.09375 583.78125 19.835938 584.019531 19.597656 C 584.257812 19.363281 584.515625 19.148438 584.792969 18.960938 C 585.074219 18.777344 585.367188 18.617188 585.679688 18.488281 C 585.988281 18.359375 586.308594 18.265625 586.640625 18.199219 C 586.96875 18.132812 587.300781 18.101562 587.636719 18.101562 C 587.972656 18.101562 588.308594 18.132812 588.636719 18.199219 C 588.964844 18.265625 589.285156 18.359375 589.597656 18.488281 C 589.90625 18.617188 590.203125 18.777344 590.480469 18.960938 C 590.761719 19.148438 591.019531 19.363281 591.257812 19.597656 C 591.496094 19.835938 591.707031 20.09375 591.894531 20.375 C 592.082031 20.652344 592.238281 20.949219 592.367188 21.257812 C 592.496094 21.570312 592.59375 21.890625 592.660156 22.21875 C 592.722656 22.550781 592.757812 22.882812 592.757812 23.21875 Z M 592.757812 23.21875 " fill-opacity="1" fill-rule="nonzero"/><path fill="#decdff" d="M 567.488281 23.21875 C 567.488281 23.554688 567.453125 23.886719 567.386719 24.21875 C 567.324219 24.546875 567.226562 24.867188 567.097656 25.175781 C 566.96875 25.488281 566.808594 25.78125 566.625 26.0625 C 566.4375 26.34375 566.226562 26.601562 565.988281 26.839844 C 565.75 27.074219 565.492188 27.289062 565.210938 27.476562 C 564.933594 27.660156 564.636719 27.820312 564.328125 27.949219 C 564.015625 28.078125 563.695312 28.171875 563.367188 28.238281 C 563.035156 28.304688 562.703125 28.335938 562.367188 28.335938 C 562.03125 28.335938 561.699219 28.304688 561.367188 28.238281 C 561.039062 28.171875 560.71875 28.078125 560.410156 27.949219 C 560.097656 27.820312 559.804688 27.660156 559.523438 27.476562 C 559.246094 27.289062 558.984375 27.074219 558.75 26.839844 C 558.511719 26.601562 558.296875 26.34375 558.113281 26.0625 C 557.925781 25.78125 557.765625 25.488281 557.636719 25.175781 C 557.511719 24.867188 557.414062 24.546875 557.347656 24.21875 C 557.28125 23.886719 557.25 23.554688 557.25 23.21875 C 557.25 22.882812 557.28125 22.550781 557.347656 22.21875 C 557.414062 21.890625 557.511719 21.570312 557.636719 21.257812 C 557.765625 20.949219 557.925781 20.652344 558.113281 20.375 C 558.296875 20.09375 558.511719 19.835938 558.75 19.597656 C 558.984375 19.363281 559.246094 19.148438 559.523438 18.960938 C 559.804688 18.777344 560.097656 18.617188 560.410156 18.488281 C 560.71875 18.359375 561.039062 18.265625 561.367188 18.199219 C 561.699219 18.132812 562.03125 18.101562 562.367188 18.101562 C 562.703125 18.101562 563.035156 18.132812 563.367188 18.199219 C 563.695312 18.265625 564.015625 18.359375 564.328125 18.488281 C 564.636719 18.617188 564.933594 18.777344 565.210938 18.960938 C 565.492188 19.148438 565.75 19.363281 565.988281 19.597656 C 566.226562 19.835938 566.4375 20.09375 566.625 20.375 C 566.808594 20.652344 566.96875 20.949219 567.097656 21.257812 C 567.226562 21.570312 567.324219 21.890625 567.386719 22.21875 C 567.453125 22.550781 567.488281 22.882812 567.488281 23.21875 Z M 567.488281 23.21875 " fill-opacity="1" fill-rule="nonzero"/><path fill="#decdff" d="M 542.1875 23.21875 C 542.1875 23.554688 542.15625 23.886719 542.089844 24.21875 C 542.023438 24.546875 541.929688 24.867188 541.800781 25.175781 C 541.671875 25.488281 541.511719 25.78125 541.328125 26.0625 C 541.140625 26.34375 540.925781 26.601562 540.691406 26.839844 C 540.453125 27.074219 540.195312 27.289062 539.914062 27.476562 C 539.632812 27.660156 539.339844 27.820312 539.027344 27.949219 C 538.71875 28.078125 538.398438 28.171875 538.070312 28.238281 C 537.738281 28.304688 537.40625 28.335938 537.070312 28.335938 C 536.734375 28.335938 536.402344 28.304688 536.070312 28.238281 C 535.742188 28.171875 535.421875 28.078125 535.109375 27.949219 C 534.800781 27.820312 534.503906 27.660156 534.226562 27.476562 C 533.945312 27.289062 533.6875 27.074219 533.449219 26.839844 C 533.210938 26.601562 533 26.34375 532.8125 26.0625 C 532.628906 25.78125 532.46875 25.488281 532.339844 25.175781 C 532.210938 24.867188 532.113281 24.546875 532.050781 24.21875 C 531.984375 23.886719 531.953125 23.554688 531.953125 23.21875 C 531.953125 22.882812 531.984375 22.550781 532.050781 22.21875 C 532.113281 21.890625 532.210938 21.570312 532.339844 21.257812 C 532.46875 20.949219 532.628906 20.652344 532.8125 20.375 C 533 20.09375 533.210938 19.835938 533.449219 19.597656 C 533.6875 19.363281 533.945312 19.148438 534.226562 18.960938 C 534.503906 18.777344 534.800781 18.617188 535.109375 18.488281 C 535.421875 18.359375 535.742188 18.265625 536.070312 18.199219 C 536.402344 18.132812 536.734375 18.101562 537.070312 18.101562 C 537.40625 18.101562 537.738281 18.132812 538.070312 18.199219 C 538.398438 18.265625 538.71875 18.359375 539.027344 18.488281 C 539.339844 18.617188 539.632812 18.777344 539.914062 18.960938 C 540.195312 19.148438 540.453125 19.363281 540.691406 19.597656 C 540.925781 19.835938 541.140625 20.09375 541.328125 20.375 C 541.511719 20.652344 541.671875 20.949219 541.800781 21.257812 C 541.929688 21.570312 542.023438 21.890625 542.089844 22.21875 C 542.15625 22.550781 542.1875 22.882812 542.1875 23.21875 Z M 542.1875 23.21875 " fill-opacity="1" fill-rule="nonzero"/><path fill="#decdff" d="M 516.890625 23.21875 C 516.890625 23.554688 516.859375 23.886719 516.792969 24.21875 C 516.726562 24.546875 516.628906 24.867188 516.5 25.175781 C 516.371094 25.488281 516.214844 25.78125 516.027344 26.0625 C 515.839844 26.34375 515.628906 26.601562 515.390625 26.839844 C 515.152344 27.074219 514.894531 27.289062 514.617188 27.476562 C 514.335938 27.660156 514.042969 27.820312 513.730469 27.949219 C 513.421875 28.078125 513.101562 28.171875 512.769531 28.238281 C 512.441406 28.304688 512.109375 28.335938 511.773438 28.335938 C 511.4375 28.335938 511.101562 28.304688 510.773438 28.238281 C 510.445312 28.171875 510.125 28.078125 509.8125 27.949219 C 509.503906 27.820312 509.207031 27.660156 508.929688 27.476562 C 508.648438 27.289062 508.390625 27.074219 508.152344 26.839844 C 507.914062 26.601562 507.703125 26.34375 507.515625 26.0625 C 507.328125 25.78125 507.171875 25.488281 507.042969 25.175781 C 506.914062 24.867188 506.816406 24.546875 506.753906 24.21875 C 506.6875 23.886719 506.652344 23.554688 506.652344 23.21875 C 506.652344 22.882812 506.6875 22.550781 506.753906 22.21875 C 506.816406 21.890625 506.914062 21.570312 507.042969 21.257812 C 507.171875 20.949219 507.328125 20.652344 507.515625 20.375 C 507.703125 20.09375 507.914062 19.835938 508.152344 19.597656 C 508.390625 19.363281 508.648438 19.148438 508.929688 18.960938 C 509.207031 18.777344 509.503906 18.617188 509.8125 18.488281 C 510.125 18.359375 510.445312 18.265625 510.773438 18.199219 C 511.101562 18.132812 511.4375 18.101562 511.773438 18.101562 C 512.109375 18.101562 512.441406 18.132812 512.769531 18.199219 C 513.101562 18.265625 513.421875 18.359375 513.730469 18.488281 C 514.042969 18.617188 514.335938 18.777344 514.617188 18.960938 C 514.894531 19.148438 515.152344 19.363281 515.390625 19.597656 C 515.628906 19.835938 515.839844 20.09375 516.027344 20.375 C 516.214844 20.652344 516.371094 20.949219 516.5 21.257812 C 516.628906 21.570312 516.726562 21.890625 516.792969 22.21875 C 516.859375 22.550781 516.890625 22.882812 516.890625 23.21875 Z M 516.890625 23.21875 " fill-opacity="1" fill-rule="nonzero"/><path fill="#decdff" d="M 491.621094 23.21875 C 491.621094 23.554688 491.585938 23.886719 491.523438 24.21875 C 491.457031 24.546875 491.359375 24.867188 491.230469 25.175781 C 491.101562 25.488281 490.945312 25.78125 490.757812 26.0625 C 490.570312 26.34375 490.359375 26.601562 490.121094 26.839844 C 489.882812 27.074219 489.625 27.289062 489.34375 27.476562 C 489.066406 27.660156 488.769531 27.820312 488.460938 27.949219 C 488.148438 28.078125 487.828125 28.171875 487.5 28.238281 C 487.171875 28.304688 486.835938 28.335938 486.5 28.335938 C 486.164062 28.335938 485.832031 28.304688 485.503906 28.238281 C 485.171875 28.171875 484.851562 28.078125 484.542969 27.949219 C 484.230469 27.820312 483.9375 27.660156 483.65625 27.476562 C 483.378906 27.289062 483.121094 27.074219 482.882812 26.839844 C 482.644531 26.601562 482.433594 26.34375 482.246094 26.0625 C 482.058594 25.78125 481.902344 25.488281 481.773438 25.175781 C 481.644531 24.867188 481.546875 24.546875 481.480469 24.21875 C 481.414062 23.886719 481.382812 23.554688 481.382812 23.21875 C 481.382812 22.882812 481.414062 22.550781 481.480469 22.21875 C 481.546875 21.890625 481.644531 21.570312 481.773438 21.257812 C 481.902344 20.949219 482.058594 20.652344 482.246094 20.375 C 482.433594 20.09375 482.644531 19.835938 482.882812 19.597656 C 483.121094 19.363281 483.378906 19.148438 483.65625 18.960938 C 483.9375 18.777344 484.230469 18.617188 484.542969 18.488281 C 484.851562 18.359375 485.171875 18.265625 485.503906 18.199219 C 485.832031 18.132812 486.164062 18.101562 486.5 18.101562 C 486.835938 18.101562 487.171875 18.132812 487.5 18.199219 C 487.828125 18.265625 488.148438 18.359375 488.460938 18.488281 C 488.769531 18.617188 489.066406 18.777344 489.34375 18.960938 C 489.625 19.148438 489.882812 19.363281 490.121094 19.597656 C 490.359375 19.835938 490.570312 20.09375 490.757812 20.375 C 490.945312 20.652344 491.101562 20.949219 491.230469 21.257812 C 491.359375 21.570312 491.457031 21.890625 491.523438 22.21875 C 491.585938 22.550781 491.621094 22.882812 491.621094 23.21875 Z M 491.621094 23.21875 " fill-opacity="1" fill-rule="nonzero"/><path fill="#decdff" d="M 466.324219 23.21875 C 466.324219 23.554688 466.289062 23.886719 466.222656 24.21875 C 466.160156 24.546875 466.0625 24.867188 465.933594 25.175781 C 465.804688 25.488281 465.648438 25.78125 465.460938 26.0625 C 465.273438 26.34375 465.0625 26.601562 464.824219 26.839844 C 464.585938 27.074219 464.328125 27.289062 464.046875 27.476562 C 463.769531 27.660156 463.472656 27.820312 463.164062 27.949219 C 462.851562 28.078125 462.53125 28.171875 462.203125 28.238281 C 461.871094 28.304688 461.539062 28.335938 461.203125 28.335938 C 460.867188 28.335938 460.535156 28.304688 460.207031 28.238281 C 459.875 28.171875 459.554688 28.078125 459.246094 27.949219 C 458.933594 27.820312 458.640625 27.660156 458.359375 27.476562 C 458.082031 27.289062 457.820312 27.074219 457.585938 26.839844 C 457.347656 26.601562 457.132812 26.34375 456.949219 26.0625 C 456.761719 25.78125 456.601562 25.488281 456.476562 25.175781 C 456.347656 24.867188 456.25 24.546875 456.183594 24.21875 C 456.117188 23.886719 456.085938 23.554688 456.085938 23.21875 C 456.085938 22.882812 456.117188 22.550781 456.183594 22.21875 C 456.25 21.890625 456.347656 21.570312 456.476562 21.257812 C 456.601562 20.949219 456.761719 20.652344 456.949219 20.375 C 457.132812 20.09375 457.347656 19.835938 457.585938 19.597656 C 457.820312 19.363281 458.082031 19.148438 458.359375 18.960938 C 458.640625 18.777344 458.933594 18.617188 459.246094 18.488281 C 459.554688 18.359375 459.875 18.265625 460.207031 18.199219 C 460.535156 18.132812 460.867188 18.101562 461.203125 18.101562 C 461.539062 18.101562 461.871094 18.132812 462.203125 18.199219 C 462.53125 18.265625 462.851562 18.359375 463.164062 18.488281 C 463.472656 18.617188 463.769531 18.777344 464.046875 18.960938 C 464.328125 19.148438 464.585938 19.363281 464.824219 19.597656 C 465.0625 19.835938 465.273438 20.09375 465.460938 20.375 C 465.648438 20.652344 465.804688 20.949219 465.933594 21.257812 C 466.0625 21.570312 466.160156 21.890625 466.222656 22.21875 C 466.289062 22.550781 466.324219 22.882812 466.324219 23.21875 Z M 466.324219 23.21875 " fill-opacity="1" fill-rule="nonzero"/><path fill="#decdff" d="M 441.023438 23.21875 C 441.023438 23.554688 440.992188 23.886719 440.925781 24.21875 C 440.859375 24.546875 440.765625 24.867188 440.636719 25.175781 C 440.507812 25.488281 440.347656 25.78125 440.164062 26.0625 C 439.976562 26.34375 439.761719 26.601562 439.527344 26.839844 C 439.289062 27.074219 439.03125 27.289062 438.75 27.476562 C 438.46875 27.660156 438.175781 27.820312 437.863281 27.949219 C 437.554688 28.078125 437.234375 28.171875 436.90625 28.238281 C 436.574219 28.304688 436.242188 28.335938 435.90625 28.335938 C 435.570312 28.335938 435.238281 28.304688 434.90625 28.238281 C 434.578125 28.171875 434.257812 28.078125 433.949219 27.949219 C 433.636719 27.820312 433.34375 27.660156 433.0625 27.476562 C 432.78125 27.289062 432.523438 27.074219 432.285156 26.839844 C 432.050781 26.601562 431.835938 26.34375 431.648438 26.0625 C 431.464844 25.78125 431.304688 25.488281 431.175781 25.175781 C 431.046875 24.867188 430.953125 24.546875 430.886719 24.21875 C 430.820312 23.886719 430.789062 23.554688 430.789062 23.21875 C 430.789062 22.882812 430.820312 22.550781 430.886719 22.21875 C 430.953125 21.890625 431.046875 21.570312 431.175781 21.257812 C 431.304688 20.949219 431.464844 20.652344 431.648438 20.375 C 431.835938 20.09375 432.050781 19.835938 432.285156 19.597656 C 432.523438 19.363281 432.78125 19.148438 433.0625 18.960938 C 433.34375 18.777344 433.636719 18.617188 433.949219 18.488281 C 434.257812 18.359375 434.578125 18.265625 434.90625 18.199219 C 435.238281 18.132812 435.570312 18.101562 435.90625 18.101562 C 436.242188 18.101562 436.574219 18.132812 436.90625 18.199219 C 437.234375 18.265625 437.554688 18.359375 437.863281 18.488281 C 438.175781 18.617188 438.46875 18.777344 438.75 18.960938 C 439.03125 19.148438 439.289062 19.363281 439.527344 19.597656 C 439.761719 19.835938 439.976562 20.09375 440.164062 20.375 C 440.347656 20.652344 440.507812 20.949219 440.636719 21.257812 C 440.765625 21.570312 440.859375 21.890625 440.925781 22.21875 C 440.992188 22.550781 441.023438 22.882812 441.023438 23.21875 Z M 441.023438 23.21875 " fill-opacity="1" fill-rule="nonzero"/><path fill="#decdff" d="M 592.757812 -1.648438 C 592.757812 -1.3125 592.722656 -0.980469 592.660156 -0.648438 C 592.59375 -0.320312 592.496094 0 592.367188 0.3125 C 592.238281 0.621094 592.082031 0.917969 591.894531 1.195312 C 591.707031 1.476562 591.496094 1.734375 591.257812 1.972656 C 591.019531 2.210938 590.761719 2.421875 590.480469 2.609375 C 590.203125 2.792969 589.90625 2.953125 589.597656 3.082031 C 589.285156 3.210938 588.964844 3.308594 588.636719 3.371094 C 588.308594 3.4375 587.972656 3.472656 587.636719 3.472656 C 587.300781 3.472656 586.96875 3.4375 586.640625 3.371094 C 586.308594 3.308594 585.988281 3.210938 585.679688 3.082031 C 585.367188 2.953125 585.074219 2.792969 584.792969 2.609375 C 584.515625 2.421875 584.257812 2.210938 584.019531 1.972656 C 583.78125 1.734375 583.570312 1.476562 583.382812 1.195312 C 583.195312 0.917969 583.039062 0.621094 582.910156 0.3125 C 582.78125 0 582.683594 -0.320312 582.617188 -0.648438 C 582.550781 -0.980469 582.519531 -1.3125 582.519531 -1.648438 C 582.519531 -1.984375 582.550781 -2.316406 582.617188 -2.648438 C 582.683594 -2.976562 582.78125 -3.296875 582.910156 -3.605469 C 583.039062 -3.917969 583.195312 -4.210938 583.382812 -4.492188 C 583.570312 -4.769531 583.78125 -5.03125 584.019531 -5.269531 C 584.257812 -5.503906 584.515625 -5.71875 584.792969 -5.902344 C 585.074219 -6.089844 585.367188 -6.25 585.679688 -6.378906 C 585.988281 -6.503906 586.308594 -6.601562 586.640625 -6.667969 C 586.96875 -6.734375 587.300781 -6.765625 587.636719 -6.765625 C 587.972656 -6.765625 588.308594 -6.734375 588.636719 -6.667969 C 588.964844 -6.601562 589.285156 -6.503906 589.597656 -6.378906 C 589.90625 -6.25 590.203125 -6.089844 590.480469 -5.902344 C 590.761719 -5.71875 591.019531 -5.503906 591.257812 -5.269531 C 591.496094 -5.03125 591.707031 -4.769531 591.894531 -4.492188 C 592.082031 -4.210938 592.238281 -3.917969 592.367188 -3.605469 C 592.496094 -3.296875 592.59375 -2.976562 592.660156 -2.648438 C 592.722656 -2.316406 592.757812 -1.984375 592.757812 -1.648438 Z M 592.757812 -1.648438 " fill-opacity="1" fill-rule="nonzero"/><path fill="#decdff" d="M 567.488281 -1.648438 C 567.488281 -1.3125 567.453125 -0.980469 567.386719 -0.648438 C 567.324219 -0.320312 567.226562 0 567.097656 0.3125 C 566.96875 0.621094 566.808594 0.917969 566.625 1.195312 C 566.4375 1.476562 566.226562 1.734375 565.988281 1.972656 C 565.75 2.210938 565.492188 2.421875 565.210938 2.609375 C 564.933594 2.792969 564.636719 2.953125 564.328125 3.082031 C 564.015625 3.210938 563.695312 3.308594 563.367188 3.371094 C 563.035156 3.4375 562.703125 3.472656 562.367188 3.472656 C 562.03125 3.472656 561.699219 3.4375 561.367188 3.371094 C 561.039062 3.308594 560.71875 3.210938 560.410156 3.082031 C 560.097656 2.953125 559.804688 2.792969 559.523438 2.609375 C 559.246094 2.421875 558.984375 2.210938 558.75 1.972656 C 558.511719 1.734375 558.296875 1.476562 558.113281 1.195312 C 557.925781 0.917969 557.765625 0.621094 557.636719 0.3125 C 557.511719 0 557.414062 -0.320312 557.347656 -0.648438 C 557.28125 -0.980469 557.25 -1.3125 557.25 -1.648438 C 557.25 -1.984375 557.28125 -2.316406 557.347656 -2.648438 C 557.414062 -2.976562 557.511719 -3.296875 557.636719 -3.605469 C 557.765625 -3.917969 557.925781 -4.210938 558.113281 -4.492188 C 558.296875 -4.769531 558.511719 -5.03125 558.75 -5.269531 C 558.984375 -5.503906 559.246094 -5.71875 559.523438 -5.902344 C 559.804688 -6.089844 560.097656 -6.25 560.410156 -6.378906 C 560.71875 -6.503906 561.039062 -6.601562 561.367188 -6.667969 C 561.699219 -6.734375 562.03125 -6.765625 562.367188 -6.765625 C 562.703125 -6.765625 563.035156 -6.734375 563.367188 -6.667969 C 563.695312 -6.601562 564.015625 -6.503906 564.328125 -6.378906 C 564.636719 -6.25 564.933594 -6.089844 565.210938 -5.902344 C 565.492188 -5.71875 565.75 -5.503906 565.988281 -5.269531 C 566.226562 -5.03125 566.4375 -4.769531 566.625 -4.492188 C 566.808594 -4.210938 566.96875 -3.917969 567.097656 -3.605469 C 567.226562 -3.296875 567.324219 -2.976562 567.386719 -2.648438 C 567.453125 -2.316406 567.488281 -1.984375 567.488281 -1.648438 Z M 567.488281 -1.648438 " fill-opacity="1" fill-rule="nonzero"/><path fill="#decdff" d="M 542.1875 -1.648438 C 542.1875 -1.3125 542.15625 -0.980469 542.089844 -0.648438 C 542.023438 -0.320312 541.929688 0 541.800781 0.3125 C 541.671875 0.621094 541.511719 0.917969 541.328125 1.195312 C 541.140625 1.476562 540.925781 1.734375 540.691406 1.972656 C 540.453125 2.210938 540.195312 2.421875 539.914062 2.609375 C 539.632812 2.792969 539.339844 2.953125 539.027344 3.082031 C 538.71875 3.210938 538.398438 3.308594 538.070312 3.371094 C 537.738281 3.4375 537.40625 3.472656 537.070312 3.472656 C 536.734375 3.472656 536.402344 3.4375 536.070312 3.371094 C 535.742188 3.308594 535.421875 3.210938 535.109375 3.082031 C 534.800781 2.953125 534.503906 2.792969 534.226562 2.609375 C 533.945312 2.421875 533.6875 2.210938 533.449219 1.972656 C 533.210938 1.734375 533 1.476562 532.8125 1.195312 C 532.628906 0.917969 532.46875 0.621094 532.339844 0.3125 C 532.210938 0 532.113281 -0.320312 532.050781 -0.648438 C 531.984375 -0.980469 531.953125 -1.3125 531.953125 -1.648438 C 531.953125 -1.984375 531.984375 -2.316406 532.050781 -2.648438 C 532.113281 -2.976562 532.210938 -3.296875 532.339844 -3.605469 C 532.46875 -3.917969 532.628906 -4.210938 532.8125 -4.492188 C 533 -4.769531 533.210938 -5.03125 533.449219 -5.269531 C 533.6875 -5.503906 533.945312 -5.71875 534.226562 -5.902344 C 534.503906 -6.089844 534.800781 -6.25 535.109375 -6.378906 C 535.421875 -6.503906 535.742188 -6.601562 536.070312 -6.667969 C 536.402344 -6.734375 536.734375 -6.765625 537.070312 -6.765625 C 537.40625 -6.765625 537.738281 -6.734375 538.070312 -6.667969 C 538.398438 -6.601562 538.71875 -6.503906 539.027344 -6.378906 C 539.339844 -6.25 539.632812 -6.089844 539.914062 -5.902344 C 540.195312 -5.71875 540.453125 -5.503906 540.691406 -5.269531 C 540.925781 -5.03125 541.140625 -4.769531 541.328125 -4.492188 C 541.511719 -4.210938 541.671875 -3.917969 541.800781 -3.605469 C 541.929688 -3.296875 542.023438 -2.976562 542.089844 -2.648438 C 542.15625 -2.316406 542.1875 -1.984375 542.1875 -1.648438 Z M 542.1875 -1.648438 " fill-opacity="1" fill-rule="nonzero"/><path fill="#decdff" d="M 516.890625 -1.648438 C 516.890625 -1.3125 516.859375 -0.980469 516.792969 -0.648438 C 516.726562 -0.320312 516.628906 0 516.5 0.3125 C 516.371094 0.621094 516.214844 0.917969 516.027344 1.195312 C 515.839844 1.476562 515.628906 1.734375 515.390625 1.972656 C 515.152344 2.210938 514.894531 2.421875 514.617188 2.609375 C 514.335938 2.792969 514.042969 2.953125 513.730469 3.082031 C 513.421875 3.210938 513.101562 3.308594 512.769531 3.371094 C 512.441406 3.4375 512.109375 3.472656 511.773438 3.472656 C 511.4375 3.472656 511.101562 3.4375 510.773438 3.371094 C 510.445312 3.308594 510.125 3.210938 509.8125 3.082031 C 509.503906 2.953125 509.207031 2.792969 508.929688 2.609375 C 508.648438 2.421875 508.390625 2.210938 508.152344 1.972656 C 507.914062 1.734375 507.703125 1.476562 507.515625 1.195312 C 507.328125 0.917969 507.171875 0.621094 507.042969 0.3125 C 506.914062 0 506.816406 -0.320312 506.753906 -0.648438 C 506.6875 -0.980469 506.652344 -1.3125 506.652344 -1.648438 C 506.652344 -1.984375 506.6875 -2.316406 506.753906 -2.648438 C 506.816406 -2.976562 506.914062 -3.296875 507.042969 -3.605469 C 507.171875 -3.917969 507.328125 -4.210938 507.515625 -4.492188 C 507.703125 -4.769531 507.914062 -5.03125 508.152344 -5.269531 C 508.390625 -5.503906 508.648438 -5.71875 508.929688 -5.902344 C 509.207031 -6.089844 509.503906 -6.25 509.8125 -6.378906 C 510.125 -6.503906 510.445312 -6.601562 510.773438 -6.667969 C 511.101562 -6.734375 511.4375 -6.765625 511.773438 -6.765625 C 512.109375 -6.765625 512.441406 -6.734375 512.769531 -6.667969 C 513.101562 -6.601562 513.421875 -6.503906 513.730469 -6.378906 C 514.042969 -6.25 514.335938 -6.089844 514.617188 -5.902344 C 514.894531 -5.71875 515.152344 -5.503906 515.390625 -5.269531 C 515.628906 -5.03125 515.839844 -4.769531 516.027344 -4.492188 C 516.214844 -4.210938 516.371094 -3.917969 516.5 -3.605469 C 516.628906 -3.296875 516.726562 -2.976562 516.792969 -2.648438 C 516.859375 -2.316406 516.890625 -1.984375 516.890625 -1.648438 Z M 516.890625 -1.648438 " fill-opacity="1" fill-rule="nonzero"/><path fill="#decdff" d="M 491.621094 -1.648438 C 491.621094 -1.3125 491.585938 -0.980469 491.523438 -0.648438 C 491.457031 -0.320312 491.359375 0 491.230469 0.3125 C 491.101562 0.621094 490.945312 0.917969 490.757812 1.195312 C 490.570312 1.476562 490.359375 1.734375 490.121094 1.972656 C 489.882812 2.210938 489.625 2.421875 489.34375 2.609375 C 489.066406 2.792969 488.769531 2.953125 488.460938 3.082031 C 488.148438 3.210938 487.828125 3.308594 487.5 3.371094 C 487.171875 3.4375 486.835938 3.472656 486.5 3.472656 C 486.164062 3.472656 485.832031 3.4375 485.503906 3.371094 C 485.171875 3.308594 484.851562 3.210938 484.542969 3.082031 C 484.230469 2.953125 483.9375 2.792969 483.65625 2.609375 C 483.378906 2.421875 483.121094 2.210938 482.882812 1.972656 C 482.644531 1.734375 482.433594 1.476562 482.246094 1.195312 C 482.058594 0.917969 481.902344 0.621094 481.773438 0.3125 C 481.644531 0 481.546875 -0.320312 481.480469 -0.648438 C 481.414062 -0.980469 481.382812 -1.3125 481.382812 -1.648438 C 481.382812 -1.984375 481.414062 -2.316406 481.480469 -2.648438 C 481.546875 -2.976562 481.644531 -3.296875 481.773438 -3.605469 C 481.902344 -3.917969 482.058594 -4.210938 482.246094 -4.492188 C 482.433594 -4.769531 482.644531 -5.03125 482.882812 -5.269531 C 483.121094 -5.503906 483.378906 -5.71875 483.65625 -5.902344 C 483.9375 -6.089844 484.230469 -6.25 484.542969 -6.378906 C 484.851562 -6.503906 485.171875 -6.601562 485.503906 -6.667969 C 485.832031 -6.734375 486.164062 -6.765625 486.5 -6.765625 C 486.835938 -6.765625 487.171875 -6.734375 487.5 -6.667969 C 487.828125 -6.601562 488.148438 -6.503906 488.460938 -6.378906 C 488.769531 -6.25 489.066406 -6.089844 489.34375 -5.902344 C 489.625 -5.71875 489.882812 -5.503906 490.121094 -5.269531 C 490.359375 -5.03125 490.570312 -4.769531 490.757812 -4.492188 C 490.945312 -4.210938 491.101562 -3.917969 491.230469 -3.605469 C 491.359375 -3.296875 491.457031 -2.976562 491.523438 -2.648438 C 491.585938 -2.316406 491.621094 -1.984375 491.621094 -1.648438 Z M 491.621094 -1.648438 " fill-opacity="1" fill-rule="nonzero"/><path fill="#decdff" d="M 466.324219 -1.648438 C 466.324219 -1.3125 466.289062 -0.980469 466.222656 -0.648438 C 466.160156 -0.320312 466.0625 0 465.933594 0.3125 C 465.804688 0.621094 465.648438 0.917969 465.460938 1.195312 C 465.273438 1.476562 465.0625 1.734375 464.824219 1.972656 C 464.585938 2.210938 464.328125 2.421875 464.046875 2.609375 C 463.769531 2.792969 463.472656 2.953125 463.164062 3.082031 C 462.851562 3.210938 462.53125 3.308594 462.203125 3.371094 C 461.871094 3.4375 461.539062 3.472656 461.203125 3.472656 C 460.867188 3.472656 460.535156 3.4375 460.207031 3.371094 C 459.875 3.308594 459.554688 3.210938 459.246094 3.082031 C 458.933594 2.953125 458.640625 2.792969 458.359375 2.609375 C 458.082031 2.421875 457.820312 2.210938 457.585938 1.972656 C 457.347656 1.734375 457.132812 1.476562 456.949219 1.195312 C 456.761719 0.917969 456.601562 0.621094 456.476562 0.3125 C 456.347656 0 456.25 -0.320312 456.183594 -0.648438 C 456.117188 -0.980469 456.085938 -1.3125 456.085938 -1.648438 C 456.085938 -1.984375 456.117188 -2.316406 456.183594 -2.648438 C 456.25 -2.976562 456.347656 -3.296875 456.476562 -3.605469 C 456.601562 -3.917969 456.761719 -4.210938 456.949219 -4.492188 C 457.132812 -4.769531 457.347656 -5.03125 457.585938 -5.269531 C 457.820312 -5.503906 458.082031 -5.71875 458.359375 -5.902344 C 458.640625 -6.089844 458.933594 -6.25 459.246094 -6.378906 C 459.554688 -6.503906 459.875 -6.601562 460.207031 -6.667969 C 460.535156 -6.734375 460.867188 -6.765625 461.203125 -6.765625 C 461.539062 -6.765625 461.871094 -6.734375 462.203125 -6.667969 C 462.53125 -6.601562 462.851562 -6.503906 463.164062 -6.378906 C 463.472656 -6.25 463.769531 -6.089844 464.046875 -5.902344 C 464.328125 -5.71875 464.585938 -5.503906 464.824219 -5.269531 C 465.0625 -5.03125 465.273438 -4.769531 465.460938 -4.492188 C 465.648438 -4.210938 465.804688 -3.917969 465.933594 -3.605469 C 466.0625 -3.296875 466.160156 -2.976562 466.222656 -2.648438 C 466.289062 -2.316406 466.324219 -1.984375 466.324219 -1.648438 Z M 466.324219 -1.648438 " fill-opacity="1" fill-rule="nonzero"/><path fill="#decdff" d="M 441.023438 -1.648438 C 441.023438 -1.3125 440.992188 -0.980469 440.925781 -0.648438 C 440.859375 -0.320312 440.765625 0 440.636719 0.3125 C 440.507812 0.621094 440.347656 0.917969 440.164062 1.195312 C 439.976562 1.476562 439.761719 1.734375 439.527344 1.972656 C 439.289062 2.210938 439.03125 2.421875 438.75 2.609375 C 438.46875 2.792969 438.175781 2.953125 437.863281 3.082031 C 437.554688 3.210938 437.234375 3.308594 436.90625 3.371094 C 436.574219 3.4375 436.242188 3.472656 435.90625 3.472656 C 435.570312 3.472656 435.238281 3.4375 434.90625 3.371094 C 434.578125 3.308594 434.257812 3.210938 433.949219 3.082031 C 433.636719 2.953125 433.34375 2.792969 433.0625 2.609375 C 432.78125 2.421875 432.523438 2.210938 432.285156 1.972656 C 432.050781 1.734375 431.835938 1.476562 431.648438 1.195312 C 431.464844 0.917969 431.304688 0.621094 431.175781 0.3125 C 431.046875 0 430.953125 -0.320312 430.886719 -0.648438 C 430.820312 -0.980469 430.789062 -1.3125 430.789062 -1.648438 C 430.789062 -1.984375 430.820312 -2.316406 430.886719 -2.648438 C 430.953125 -2.976562 431.046875 -3.296875 431.175781 -3.605469 C 431.304688 -3.917969 431.464844 -4.210938 431.648438 -4.492188 C 431.835938 -4.769531 432.050781 -5.03125 432.285156 -5.269531 C 432.523438 -5.503906 432.78125 -5.71875 433.0625 -5.902344 C 433.34375 -6.089844 433.636719 -6.25 433.949219 -6.378906 C 434.257812 -6.503906 434.578125 -6.601562 434.90625 -6.667969 C 435.238281 -6.734375 435.570312 -6.765625 435.90625 -6.765625 C 436.242188 -6.765625 436.574219 -6.734375 436.90625 -6.667969 C 437.234375 -6.601562 437.554688 -6.503906 437.863281 -6.378906 C 438.175781 -6.25 438.46875 -6.089844 438.75 -5.902344 C 439.03125 -5.71875 439.289062 -5.503906 439.527344 -5.269531 C 439.761719 -5.03125 439.976562 -4.769531 440.164062 -4.492188 C 440.347656 -4.210938 440.507812 -3.917969 440.636719 -3.605469 C 440.765625 -3.296875 440.859375 -2.976562 440.925781 -2.648438 C 440.992188 -2.316406 441.023438 -1.984375 441.023438 -1.648438 Z M 441.023438 -1.648438 " fill-opacity="1" fill-rule="nonzero"/><path fill="#decdff" d="M 415.753906 -1.648438 C 415.753906 -1.3125 415.722656 -0.980469 415.65625 -0.648438 C 415.589844 -0.320312 415.492188 0 415.363281 0.3125 C 415.234375 0.621094 415.078125 0.917969 414.890625 1.195312 C 414.703125 1.476562 414.492188 1.734375 414.253906 1.972656 C 414.015625 2.210938 413.757812 2.421875 413.480469 2.609375 C 413.199219 2.792969 412.90625 2.953125 412.59375 3.082031 C 412.285156 3.210938 411.964844 3.308594 411.632812 3.371094 C 411.304688 3.4375 410.972656 3.472656 410.636719 3.472656 C 410.300781 3.472656 409.964844 3.4375 409.636719 3.371094 C 409.308594 3.308594 408.988281 3.210938 408.675781 3.082031 C 408.367188 2.953125 408.070312 2.792969 407.792969 2.609375 C 407.511719 2.421875 407.253906 2.210938 407.015625 1.972656 C 406.777344 1.734375 406.566406 1.476562 406.378906 1.195312 C 406.191406 0.917969 406.035156 0.621094 405.90625 0.3125 C 405.777344 0 405.679688 -0.320312 405.613281 -0.648438 C 405.550781 -0.980469 405.515625 -1.3125 405.515625 -1.648438 C 405.515625 -1.984375 405.550781 -2.316406 405.613281 -2.648438 C 405.679688 -2.976562 405.777344 -3.296875 405.90625 -3.605469 C 406.035156 -3.917969 406.191406 -4.210938 406.378906 -4.492188 C 406.566406 -4.769531 406.777344 -5.03125 407.015625 -5.269531 C 407.253906 -5.503906 407.511719 -5.71875 407.792969 -5.902344 C 408.070312 -6.089844 408.367188 -6.25 408.675781 -6.378906 C 408.988281 -6.503906 409.308594 -6.601562 409.636719 -6.667969 C 409.964844 -6.734375 410.300781 -6.765625 410.636719 -6.765625 C 410.972656 -6.765625 411.304688 -6.734375 411.632812 -6.667969 C 411.964844 -6.601562 412.285156 -6.503906 412.59375 -6.378906 C 412.90625 -6.25 413.199219 -6.089844 413.480469 -5.902344 C 413.757812 -5.71875 414.015625 -5.503906 414.253906 -5.269531 C 414.492188 -5.03125 414.703125 -4.769531 414.890625 -4.492188 C 415.078125 -4.210938 415.234375 -3.917969 415.363281 -3.605469 C 415.492188 -3.296875 415.589844 -2.976562 415.65625 -2.648438 C 415.722656 -2.316406 415.753906 -1.984375 415.753906 -1.648438 Z M 415.753906 -1.648438 " fill-opacity="1" fill-rule="nonzero"/><g clip-path="url(#662d72b740)"><g transform="matrix(1, 0, 0, 1, 425, 0)"><g clip-path="url(#2594d877be)"><g clip-path="url(#26a7d124fa)"><path fill="#5f73e5" d="M 127.007812 -22.015625 L 253.421875 -22.015625 L 221.703125 9.738281 L 151.425781 79.980469 L 88.199219 16.789062 Z M 127.007812 -22.015625 " fill-opacity="1" fill-rule="nonzero"/></g><g clip-path="url(#4322c518d7)"><path fill="#decdff" d="M 0.59375 -22.015625 L 127.007812 -22.015625 L 63.816406 41.171875 Z M 0.59375 -22.015625 " fill-opacity="1" fill-rule="nonzero"/></g></g></g></g></svg>