<svg xmlns="http://www.w3.org/2000/svg" xmlns:xlink="http://www.w3.org/1999/xlink" width="794" zoomAndPan="magnify" viewBox="0 0 594.95996 842.24997" height="1123" preserveAspectRatio="xMidYMid meet" version="1.0"><defs><clipPath id="99c4fb2b0e"><path d="M 0.246094 0 L 594.675781 0 L 594.675781 841.5 L 0.246094 841.5 Z M 0.246094 0 " clip-rule="nonzero"/></clipPath><clipPath id="46f42ec4a4"><rect x="0" width="230" y="0" height="230"/></clipPath><clipPath id="d6c9d46916"><path d="M 0.246094 707 L 150 707 L 150 841.5 L 0.246094 841.5 Z M 0.246094 707 " clip-rule="nonzero"/></clipPath><clipPath id="02aa2878d2"><path d="M 84 771 L 295.027344 771 L 295.027344 841.5 L 84 841.5 Z M 84 771 " clip-rule="nonzero"/></clipPath><clipPath id="c7063749d8"><path d="M 0.246094 0 L 294.84375 0 L 294.84375 354.324219 L 0.246094 354.324219 Z M 0.246094 0 " clip-rule="nonzero"/></clipPath><clipPath id="4a5620a9c1"><path d="M 0.246094 0 L 227 0 L 227 228 L 0.246094 228 Z M 0.246094 0 " clip-rule="nonzero"/></clipPath><clipPath id="5fa68a01dd"><path d="M 0.246094 0 L 294.84375 0 L 294.84375 296 L 0.246094 296 Z M 0.246094 0 " clip-rule="nonzero"/></clipPath><clipPath id="db8481ffc1"><path d="M 0.246094 160 L 44 160 L 44 354 L 0.246094 354 Z M 0.246094 160 " clip-rule="nonzero"/></clipPath><clipPath id="61738ca347"><rect x="0" width="295" y="0" height="355"/></clipPath></defs><g clip-path="url(#99c4fb2b0e)"><path fill="#ffffff" d="M 0.246094 0 L 595.214844 0 L 595.214844 841.5 L 0.246094 841.5 Z M 0.246094 0 " fill-opacity="1" fill-rule="nonzero"/><path fill="#ffffff" d="M 0.246094 0 L 595.214844 0 L 595.214844 841.5 L 0.246094 841.5 Z M 0.246094 0 " fill-opacity="1" fill-rule="nonzero"/></g><g transform="matrix(1, 0, 0, 1, 6, 602)"><g clip-path="url(#46f42ec4a4)"><path fill="#decdff" d="M 1.550781 9.460938 C 1.550781 9.050781 1.589844 8.648438 1.667969 8.25 C 1.75 7.847656 1.867188 7.460938 2.023438 7.082031 C 2.179688 6.707031 2.371094 6.347656 2.597656 6.011719 C 2.824219 5.671875 3.082031 5.355469 3.367188 5.070312 C 3.65625 4.78125 3.972656 4.523438 4.308594 4.296875 C 4.648438 4.070312 5.007812 3.878906 5.382812 3.722656 C 5.761719 3.566406 6.148438 3.449219 6.546875 3.371094 C 6.949219 3.289062 7.351562 3.25 7.761719 3.25 C 8.167969 3.25 8.570312 3.289062 8.972656 3.371094 C 9.371094 3.449219 9.757812 3.566406 10.136719 3.722656 C 10.511719 3.878906 10.871094 4.070312 11.210938 4.296875 C 11.550781 4.523438 11.863281 4.78125 12.152344 5.070312 C 12.4375 5.355469 12.695312 5.671875 12.921875 6.011719 C 13.148438 6.347656 13.339844 6.707031 13.496094 7.082031 C 13.652344 7.460938 13.769531 7.847656 13.851562 8.25 C 13.929688 8.648438 13.96875 9.050781 13.96875 9.460938 C 13.96875 9.867188 13.929688 10.269531 13.851562 10.671875 C 13.769531 11.070312 13.652344 11.460938 13.496094 11.835938 C 13.339844 12.210938 13.148438 12.570312 12.921875 12.910156 C 12.695312 13.25 12.4375 13.5625 12.152344 13.851562 C 11.863281 14.140625 11.550781 14.394531 11.210938 14.621094 C 10.871094 14.847656 10.511719 15.039062 10.136719 15.195312 C 9.757812 15.351562 9.371094 15.46875 8.972656 15.550781 C 8.570312 15.628906 8.167969 15.667969 7.761719 15.667969 C 7.351562 15.667969 6.949219 15.628906 6.546875 15.550781 C 6.148438 15.46875 5.761719 15.351562 5.382812 15.195312 C 5.007812 15.039062 4.648438 14.847656 4.308594 14.621094 C 3.972656 14.394531 3.65625 14.140625 3.371094 13.851562 C 3.082031 13.5625 2.824219 13.25 2.597656 12.910156 C 2.371094 12.570312 2.179688 12.210938 2.023438 11.835938 C 1.867188 11.460938 1.75 11.070312 1.667969 10.671875 C 1.589844 10.269531 1.550781 9.867188 1.550781 9.460938 Z M 1.550781 9.460938 " fill-opacity="1" fill-rule="nonzero"/><path fill="#decdff" d="M 1.550781 39.625 C 1.550781 39.21875 1.589844 38.8125 1.667969 38.414062 C 1.75 38.015625 1.867188 37.625 2.023438 37.25 C 2.179688 36.871094 2.371094 36.515625 2.597656 36.175781 C 2.824219 35.835938 3.082031 35.523438 3.367188 35.234375 C 3.65625 34.945312 3.972656 34.6875 4.308594 34.460938 C 4.648438 34.234375 5.007812 34.042969 5.382812 33.890625 C 5.761719 33.734375 6.148438 33.613281 6.546875 33.535156 C 6.949219 33.457031 7.351562 33.417969 7.761719 33.417969 C 8.167969 33.417969 8.570312 33.457031 8.972656 33.535156 C 9.371094 33.613281 9.757812 33.734375 10.136719 33.890625 C 10.511719 34.042969 10.871094 34.234375 11.210938 34.460938 C 11.550781 34.6875 11.863281 34.945312 12.152344 35.234375 C 12.4375 35.523438 12.695312 35.835938 12.921875 36.175781 C 13.148438 36.515625 13.339844 36.871094 13.496094 37.25 C 13.652344 37.625 13.769531 38.015625 13.851562 38.414062 C 13.929688 38.8125 13.96875 39.21875 13.96875 39.625 C 13.96875 40.035156 13.929688 40.4375 13.851562 40.835938 C 13.769531 41.238281 13.652344 41.625 13.496094 42.003906 C 13.339844 42.378906 13.148438 42.738281 12.921875 43.074219 C 12.695312 43.414062 12.4375 43.726562 12.152344 44.015625 C 11.863281 44.304688 11.550781 44.5625 11.210938 44.789062 C 10.871094 45.015625 10.511719 45.207031 10.136719 45.363281 C 9.757812 45.519531 9.371094 45.636719 8.972656 45.714844 C 8.570312 45.796875 8.167969 45.835938 7.761719 45.835938 C 7.351562 45.835938 6.949219 45.796875 6.546875 45.714844 C 6.148438 45.636719 5.761719 45.519531 5.382812 45.363281 C 5.007812 45.207031 4.648438 45.015625 4.308594 44.789062 C 3.972656 44.5625 3.65625 44.304688 3.371094 44.015625 C 3.082031 43.726562 2.824219 43.414062 2.597656 43.074219 C 2.371094 42.738281 2.179688 42.378906 2.023438 42.003906 C 1.867188 41.625 1.75 41.238281 1.667969 40.835938 C 1.589844 40.4375 1.550781 40.035156 1.550781 39.625 Z M 1.550781 39.625 " fill-opacity="1" fill-rule="nonzero"/><path fill="#decdff" d="M 32.207031 39.625 C 32.207031 39.21875 32.246094 38.8125 32.324219 38.414062 C 32.40625 38.015625 32.523438 37.625 32.679688 37.25 C 32.835938 36.871094 33.027344 36.515625 33.253906 36.175781 C 33.480469 35.835938 33.738281 35.523438 34.023438 35.234375 C 34.3125 34.945312 34.628906 34.6875 34.964844 34.460938 C 35.304688 34.234375 35.664062 34.042969 36.039062 33.890625 C 36.417969 33.734375 36.804688 33.613281 37.203125 33.535156 C 37.605469 33.457031 38.007812 33.417969 38.417969 33.417969 C 38.824219 33.417969 39.226562 33.457031 39.628906 33.535156 C 40.027344 33.613281 40.414062 33.734375 40.792969 33.890625 C 41.167969 34.042969 41.527344 34.234375 41.867188 34.460938 C 42.207031 34.6875 42.519531 34.945312 42.808594 35.234375 C 43.09375 35.523438 43.351562 35.835938 43.578125 36.175781 C 43.804688 36.515625 43.996094 36.871094 44.152344 37.25 C 44.308594 37.625 44.425781 38.015625 44.507812 38.414062 C 44.585938 38.8125 44.625 39.21875 44.625 39.625 C 44.625 40.035156 44.585938 40.4375 44.507812 40.835938 C 44.425781 41.238281 44.308594 41.625 44.152344 42.003906 C 43.996094 42.378906 43.804688 42.738281 43.578125 43.074219 C 43.351562 43.414062 43.09375 43.726562 42.808594 44.015625 C 42.519531 44.304688 42.207031 44.5625 41.867188 44.789062 C 41.527344 45.015625 41.167969 45.207031 40.792969 45.363281 C 40.414062 45.519531 40.027344 45.636719 39.628906 45.714844 C 39.226562 45.796875 38.824219 45.835938 38.417969 45.835938 C 38.007812 45.835938 37.605469 45.796875 37.203125 45.714844 C 36.804688 45.636719 36.417969 45.519531 36.039062 45.363281 C 35.664062 45.207031 35.304688 45.015625 34.964844 44.789062 C 34.628906 44.5625 34.3125 44.304688 34.023438 44.015625 C 33.738281 43.726562 33.480469 43.414062 33.253906 43.074219 C 33.027344 42.738281 32.835938 42.378906 32.679688 42.003906 C 32.523438 41.625 32.40625 41.238281 32.324219 40.835938 C 32.246094 40.4375 32.207031 40.035156 32.207031 39.625 Z M 32.207031 39.625 " fill-opacity="1" fill-rule="nonzero"/><path fill="#decdff" d="M 1.550781 69.792969 C 1.550781 69.382812 1.589844 68.980469 1.667969 68.582031 C 1.75 68.179688 1.867188 67.792969 2.023438 67.414062 C 2.179688 67.039062 2.371094 66.679688 2.597656 66.34375 C 2.824219 66.003906 3.082031 65.6875 3.367188 65.402344 C 3.65625 65.113281 3.972656 64.855469 4.308594 64.628906 C 4.648438 64.402344 5.007812 64.210938 5.382812 64.054688 C 5.761719 63.898438 6.148438 63.78125 6.546875 63.703125 C 6.949219 63.621094 7.351562 63.582031 7.761719 63.582031 C 8.167969 63.582031 8.570312 63.621094 8.972656 63.703125 C 9.371094 63.78125 9.757812 63.898438 10.136719 64.054688 C 10.511719 64.210938 10.871094 64.402344 11.210938 64.628906 C 11.550781 64.855469 11.863281 65.113281 12.152344 65.402344 C 12.4375 65.6875 12.695312 66.003906 12.921875 66.339844 C 13.148438 66.679688 13.339844 67.039062 13.496094 67.414062 C 13.652344 67.792969 13.769531 68.179688 13.851562 68.582031 C 13.929688 68.980469 13.96875 69.382812 13.96875 69.792969 C 13.96875 70.199219 13.929688 70.601562 13.851562 71.003906 C 13.769531 71.402344 13.652344 71.792969 13.496094 72.167969 C 13.339844 72.542969 13.148438 72.902344 12.921875 73.242188 C 12.695312 73.582031 12.4375 73.894531 12.152344 74.183594 C 11.863281 74.472656 11.550781 74.726562 11.210938 74.953125 C 10.871094 75.179688 10.511719 75.371094 10.136719 75.527344 C 9.757812 75.683594 9.371094 75.800781 8.972656 75.882812 C 8.570312 75.960938 8.167969 76 7.761719 76 C 7.351562 76 6.949219 75.960938 6.546875 75.882812 C 6.148438 75.800781 5.761719 75.683594 5.382812 75.527344 C 5.007812 75.371094 4.648438 75.179688 4.308594 74.953125 C 3.972656 74.726562 3.65625 74.472656 3.371094 74.183594 C 3.082031 73.894531 2.824219 73.582031 2.597656 73.242188 C 2.371094 72.902344 2.179688 72.542969 2.023438 72.167969 C 1.867188 71.792969 1.75 71.402344 1.667969 71.003906 C 1.589844 70.601562 1.550781 70.199219 1.550781 69.792969 Z M 1.550781 69.792969 " fill-opacity="1" fill-rule="nonzero"/><path fill="#decdff" d="M 32.207031 69.792969 C 32.207031 69.382812 32.246094 68.980469 32.324219 68.582031 C 32.40625 68.179688 32.523438 67.792969 32.679688 67.414062 C 32.835938 67.039062 33.027344 66.679688 33.253906 66.34375 C 33.480469 66.003906 33.738281 65.6875 34.023438 65.402344 C 34.3125 65.113281 34.628906 64.855469 34.964844 64.628906 C 35.304688 64.402344 35.664062 64.210938 36.039062 64.054688 C 36.417969 63.898438 36.804688 63.78125 37.203125 63.703125 C 37.605469 63.621094 38.007812 63.582031 38.417969 63.582031 C 38.824219 63.582031 39.226562 63.621094 39.628906 63.703125 C 40.027344 63.78125 40.414062 63.898438 40.792969 64.054688 C 41.167969 64.210938 41.527344 64.402344 41.867188 64.628906 C 42.207031 64.855469 42.519531 65.113281 42.808594 65.402344 C 43.09375 65.6875 43.351562 66.003906 43.578125 66.339844 C 43.804688 66.679688 43.996094 67.039062 44.152344 67.414062 C 44.308594 67.792969 44.425781 68.179688 44.507812 68.582031 C 44.585938 68.980469 44.625 69.382812 44.625 69.792969 C 44.625 70.199219 44.585938 70.601562 44.507812 71.003906 C 44.425781 71.402344 44.308594 71.792969 44.152344 72.167969 C 43.996094 72.542969 43.804688 72.902344 43.578125 73.242188 C 43.351562 73.582031 43.09375 73.894531 42.808594 74.183594 C 42.519531 74.472656 42.207031 74.726562 41.867188 74.953125 C 41.527344 75.179688 41.167969 75.371094 40.792969 75.527344 C 40.414062 75.683594 40.027344 75.800781 39.628906 75.882812 C 39.226562 75.960938 38.824219 76 38.417969 76 C 38.007812 76 37.605469 75.960938 37.203125 75.882812 C 36.804688 75.800781 36.417969 75.683594 36.039062 75.527344 C 35.664062 75.371094 35.304688 75.179688 34.964844 74.953125 C 34.628906 74.726562 34.3125 74.472656 34.023438 74.183594 C 33.738281 73.894531 33.480469 73.582031 33.253906 73.242188 C 33.027344 72.902344 32.835938 72.542969 32.679688 72.167969 C 32.523438 71.792969 32.40625 71.402344 32.324219 71.003906 C 32.246094 70.601562 32.207031 70.199219 32.207031 69.792969 Z M 32.207031 69.792969 " fill-opacity="1" fill-rule="nonzero"/><path fill="#decdff" d="M 62.894531 69.792969 C 62.894531 69.382812 62.933594 68.980469 63.015625 68.582031 C 63.09375 68.179688 63.210938 67.792969 63.367188 67.414062 C 63.523438 67.039062 63.714844 66.679688 63.941406 66.34375 C 64.167969 66.003906 64.425781 65.6875 64.714844 65.402344 C 65.003906 65.113281 65.316406 64.855469 65.65625 64.628906 C 65.996094 64.402344 66.351562 64.210938 66.730469 64.054688 C 67.105469 63.898438 67.492188 63.78125 67.894531 63.703125 C 68.292969 63.621094 68.699219 63.582031 69.105469 63.582031 C 69.511719 63.582031 69.917969 63.621094 70.316406 63.703125 C 70.714844 63.78125 71.105469 63.898438 71.480469 64.054688 C 71.859375 64.210938 72.214844 64.402344 72.554688 64.628906 C 72.894531 64.855469 73.207031 65.113281 73.496094 65.402344 C 73.785156 65.6875 74.042969 66.003906 74.269531 66.339844 C 74.496094 66.679688 74.6875 67.039062 74.84375 67.414062 C 75 67.792969 75.117188 68.179688 75.195312 68.582031 C 75.273438 68.980469 75.316406 69.382812 75.316406 69.792969 C 75.316406 70.199219 75.273438 70.601562 75.195312 71.003906 C 75.117188 71.402344 75 71.792969 74.84375 72.167969 C 74.6875 72.542969 74.496094 72.902344 74.269531 73.242188 C 74.042969 73.582031 73.785156 73.894531 73.496094 74.183594 C 73.207031 74.472656 72.894531 74.726562 72.554688 74.953125 C 72.214844 75.179688 71.859375 75.371094 71.480469 75.527344 C 71.105469 75.683594 70.714844 75.800781 70.316406 75.882812 C 69.917969 75.960938 69.511719 76 69.105469 76 C 68.699219 76 68.292969 75.960938 67.894531 75.882812 C 67.492188 75.800781 67.105469 75.683594 66.730469 75.527344 C 66.351562 75.371094 65.996094 75.179688 65.65625 74.953125 C 65.316406 74.726562 65.003906 74.472656 64.714844 74.183594 C 64.425781 73.894531 64.167969 73.582031 63.941406 73.242188 C 63.714844 72.902344 63.523438 72.542969 63.367188 72.167969 C 63.210938 71.792969 63.09375 71.402344 63.015625 71.003906 C 62.933594 70.601562 62.894531 70.199219 62.894531 69.792969 Z M 62.894531 69.792969 " fill-opacity="1" fill-rule="nonzero"/><path fill="#decdff" d="M 1.550781 99.957031 C 1.550781 99.550781 1.589844 99.144531 1.667969 98.746094 C 1.75 98.347656 1.867188 97.957031 2.023438 97.582031 C 2.179688 97.203125 2.371094 96.847656 2.597656 96.507812 C 2.824219 96.167969 3.082031 95.855469 3.367188 95.566406 C 3.65625 95.277344 3.972656 95.019531 4.308594 94.792969 C 4.648438 94.566406 5.007812 94.375 5.382812 94.222656 C 5.761719 94.066406 6.148438 93.945312 6.546875 93.867188 C 6.949219 93.789062 7.351562 93.746094 7.761719 93.746094 C 8.167969 93.746094 8.570312 93.789062 8.972656 93.867188 C 9.371094 93.945312 9.757812 94.066406 10.136719 94.222656 C 10.511719 94.375 10.871094 94.566406 11.210938 94.792969 C 11.550781 95.019531 11.863281 95.277344 12.152344 95.566406 C 12.4375 95.855469 12.695312 96.167969 12.921875 96.507812 C 13.148438 96.847656 13.339844 97.203125 13.496094 97.582031 C 13.652344 97.957031 13.769531 98.347656 13.851562 98.746094 C 13.929688 99.144531 13.96875 99.550781 13.96875 99.957031 C 13.96875 100.367188 13.929688 100.769531 13.851562 101.167969 C 13.769531 101.570312 13.652344 101.957031 13.496094 102.335938 C 13.339844 102.710938 13.148438 103.070312 12.921875 103.40625 C 12.695312 103.746094 12.4375 104.058594 12.152344 104.347656 C 11.863281 104.636719 11.550781 104.894531 11.210938 105.121094 C 10.871094 105.347656 10.511719 105.539062 10.136719 105.695312 C 9.757812 105.851562 9.371094 105.96875 8.972656 106.046875 C 8.570312 106.128906 8.167969 106.167969 7.761719 106.167969 C 7.351562 106.167969 6.949219 106.128906 6.546875 106.046875 C 6.148438 105.96875 5.761719 105.851562 5.382812 105.695312 C 5.007812 105.539062 4.648438 105.347656 4.308594 105.121094 C 3.972656 104.894531 3.65625 104.636719 3.371094 104.347656 C 3.082031 104.058594 2.824219 103.746094 2.597656 103.40625 C 2.371094 103.070312 2.179688 102.710938 2.023438 102.335938 C 1.867188 101.957031 1.75 101.570312 1.667969 101.167969 C 1.589844 100.769531 1.550781 100.367188 1.550781 99.957031 Z M 1.550781 99.957031 " fill-opacity="1" fill-rule="nonzero"/><path fill="#decdff" d="M 32.207031 99.957031 C 32.207031 99.550781 32.246094 99.144531 32.324219 98.746094 C 32.40625 98.347656 32.523438 97.957031 32.679688 97.582031 C 32.835938 97.203125 33.027344 96.847656 33.253906 96.507812 C 33.480469 96.167969 33.738281 95.855469 34.023438 95.566406 C 34.3125 95.277344 34.628906 95.019531 34.964844 94.792969 C 35.304688 94.566406 35.664062 94.375 36.039062 94.222656 C 36.417969 94.066406 36.804688 93.945312 37.203125 93.867188 C 37.605469 93.789062 38.007812 93.746094 38.417969 93.746094 C 38.824219 93.746094 39.226562 93.789062 39.628906 93.867188 C 40.027344 93.945312 40.414062 94.066406 40.792969 94.222656 C 41.167969 94.375 41.527344 94.566406 41.867188 94.792969 C 42.207031 95.019531 42.519531 95.277344 42.808594 95.566406 C 43.09375 95.855469 43.351562 96.167969 43.578125 96.507812 C 43.804688 96.847656 43.996094 97.203125 44.152344 97.582031 C 44.308594 97.957031 44.425781 98.347656 44.507812 98.746094 C 44.585938 99.144531 44.625 99.550781 44.625 99.957031 C 44.625 100.367188 44.585938 100.769531 44.507812 101.167969 C 44.425781 101.570312 44.308594 101.957031 44.152344 102.335938 C 43.996094 102.710938 43.804688 103.070312 43.578125 103.40625 C 43.351562 103.746094 43.09375 104.058594 42.808594 104.347656 C 42.519531 104.636719 42.207031 104.894531 41.867188 105.121094 C 41.527344 105.347656 41.167969 105.539062 40.792969 105.695312 C 40.414062 105.851562 40.027344 105.96875 39.628906 106.046875 C 39.226562 106.128906 38.824219 106.167969 38.417969 106.167969 C 38.007812 106.167969 37.605469 106.128906 37.203125 106.046875 C 36.804688 105.96875 36.417969 105.851562 36.039062 105.695312 C 35.664062 105.539062 35.304688 105.347656 34.964844 105.121094 C 34.628906 104.894531 34.3125 104.636719 34.023438 104.347656 C 33.738281 104.058594 33.480469 103.746094 33.253906 103.40625 C 33.027344 103.070312 32.835938 102.710938 32.679688 102.335938 C 32.523438 101.957031 32.40625 101.570312 32.324219 101.167969 C 32.246094 100.769531 32.207031 100.367188 32.207031 99.957031 Z M 32.207031 99.957031 " fill-opacity="1" fill-rule="nonzero"/><path fill="#decdff" d="M 62.894531 99.957031 C 62.894531 99.550781 62.933594 99.144531 63.015625 98.746094 C 63.09375 98.347656 63.210938 97.957031 63.367188 97.582031 C 63.523438 97.203125 63.714844 96.847656 63.941406 96.507812 C 64.167969 96.167969 64.425781 95.855469 64.714844 95.566406 C 65.003906 95.277344 65.316406 95.019531 65.65625 94.792969 C 65.996094 94.566406 66.351562 94.375 66.730469 94.222656 C 67.105469 94.066406 67.492188 93.945312 67.894531 93.867188 C 68.292969 93.789062 68.699219 93.746094 69.105469 93.746094 C 69.511719 93.746094 69.917969 93.789062 70.316406 93.867188 C 70.714844 93.945312 71.105469 94.066406 71.480469 94.222656 C 71.859375 94.375 72.214844 94.566406 72.554688 94.792969 C 72.894531 95.019531 73.207031 95.277344 73.496094 95.566406 C 73.785156 95.855469 74.042969 96.167969 74.269531 96.507812 C 74.496094 96.847656 74.6875 97.203125 74.84375 97.582031 C 75 97.957031 75.117188 98.347656 75.195312 98.746094 C 75.273438 99.144531 75.316406 99.550781 75.316406 99.957031 C 75.316406 100.367188 75.273438 100.769531 75.195312 101.167969 C 75.117188 101.570312 75 101.957031 74.84375 102.335938 C 74.6875 102.710938 74.496094 103.070312 74.269531 103.40625 C 74.042969 103.746094 73.785156 104.058594 73.496094 104.347656 C 73.207031 104.636719 72.894531 104.894531 72.554688 105.121094 C 72.214844 105.347656 71.859375 105.539062 71.480469 105.695312 C 71.105469 105.851562 70.714844 105.96875 70.316406 106.046875 C 69.917969 106.128906 69.511719 106.167969 69.105469 106.167969 C 68.699219 106.167969 68.292969 106.128906 67.894531 106.046875 C 67.492188 105.96875 67.105469 105.851562 66.730469 105.695312 C 66.351562 105.539062 65.996094 105.347656 65.65625 105.121094 C 65.316406 104.894531 65.003906 104.636719 64.714844 104.347656 C 64.425781 104.058594 64.167969 103.746094 63.941406 103.40625 C 63.714844 103.070312 63.523438 102.710938 63.367188 102.335938 C 63.210938 101.957031 63.09375 101.570312 63.015625 101.167969 C 62.933594 100.769531 62.894531 100.367188 62.894531 99.957031 Z M 62.894531 99.957031 " fill-opacity="1" fill-rule="nonzero"/><path fill="#decdff" d="M 93.585938 99.957031 C 93.585938 99.550781 93.625 99.144531 93.703125 98.746094 C 93.785156 98.347656 93.902344 97.957031 94.058594 97.582031 C 94.214844 97.203125 94.40625 96.847656 94.632812 96.507812 C 94.855469 96.167969 95.113281 95.855469 95.402344 95.566406 C 95.691406 95.277344 96.003906 95.019531 96.34375 94.792969 C 96.683594 94.566406 97.039062 94.375 97.417969 94.222656 C 97.792969 94.066406 98.183594 93.945312 98.582031 93.867188 C 98.984375 93.789062 99.386719 93.746094 99.792969 93.746094 C 100.203125 93.746094 100.605469 93.789062 101.003906 93.867188 C 101.40625 93.945312 101.792969 94.066406 102.171875 94.222656 C 102.546875 94.375 102.90625 94.566406 103.242188 94.792969 C 103.582031 95.019531 103.898438 95.277344 104.183594 95.566406 C 104.472656 95.855469 104.730469 96.167969 104.957031 96.507812 C 105.183594 96.847656 105.375 97.203125 105.53125 97.582031 C 105.6875 97.957031 105.804688 98.347656 105.882812 98.746094 C 105.964844 99.144531 106.003906 99.550781 106.003906 99.957031 C 106.003906 100.367188 105.964844 100.769531 105.882812 101.167969 C 105.804688 101.570312 105.6875 101.957031 105.53125 102.335938 C 105.375 102.710938 105.183594 103.070312 104.957031 103.40625 C 104.730469 103.746094 104.472656 104.058594 104.183594 104.347656 C 103.898438 104.636719 103.582031 104.894531 103.242188 105.121094 C 102.90625 105.347656 102.546875 105.539062 102.171875 105.695312 C 101.792969 105.851562 101.40625 105.96875 101.003906 106.046875 C 100.605469 106.128906 100.203125 106.167969 99.792969 106.167969 C 99.386719 106.167969 98.984375 106.128906 98.582031 106.046875 C 98.183594 105.96875 97.792969 105.851562 97.417969 105.695312 C 97.039062 105.539062 96.683594 105.347656 96.34375 105.121094 C 96.003906 104.894531 95.691406 104.636719 95.402344 104.347656 C 95.113281 104.058594 94.855469 103.746094 94.632812 103.40625 C 94.40625 103.070312 94.214844 102.710938 94.058594 102.335938 C 93.902344 101.957031 93.785156 101.570312 93.703125 101.167969 C 93.625 100.769531 93.585938 100.367188 93.585938 99.957031 Z M 93.585938 99.957031 " fill-opacity="1" fill-rule="nonzero"/><path fill="#decdff" d="M 1.550781 130.089844 C 1.550781 129.683594 1.589844 129.28125 1.667969 128.878906 C 1.75 128.480469 1.867188 128.089844 2.023438 127.714844 C 2.179688 127.339844 2.371094 126.980469 2.597656 126.640625 C 2.824219 126.300781 3.082031 125.988281 3.367188 125.699219 C 3.65625 125.410156 3.972656 125.15625 4.308594 124.929688 C 4.648438 124.703125 5.007812 124.511719 5.382812 124.355469 C 5.761719 124.199219 6.148438 124.082031 6.546875 124 C 6.949219 123.921875 7.351562 123.882812 7.761719 123.882812 C 8.167969 123.882812 8.570312 123.921875 8.972656 124 C 9.371094 124.082031 9.757812 124.199219 10.136719 124.355469 C 10.511719 124.511719 10.871094 124.703125 11.210938 124.929688 C 11.550781 125.15625 11.863281 125.410156 12.152344 125.699219 C 12.4375 125.988281 12.695312 126.300781 12.921875 126.640625 C 13.148438 126.980469 13.339844 127.339844 13.496094 127.714844 C 13.652344 128.089844 13.769531 128.480469 13.851562 128.878906 C 13.929688 129.28125 13.96875 129.683594 13.96875 130.089844 C 13.96875 130.5 13.929688 130.902344 13.851562 131.300781 C 13.769531 131.703125 13.652344 132.089844 13.496094 132.46875 C 13.339844 132.84375 13.148438 133.203125 12.921875 133.539062 C 12.695312 133.878906 12.4375 134.195312 12.152344 134.480469 C 11.863281 134.769531 11.550781 135.027344 11.210938 135.253906 C 10.871094 135.480469 10.511719 135.671875 10.136719 135.828125 C 9.757812 135.984375 9.371094 136.101562 8.972656 136.179688 C 8.570312 136.261719 8.167969 136.300781 7.761719 136.300781 C 7.351562 136.300781 6.949219 136.261719 6.546875 136.179688 C 6.148438 136.101562 5.761719 135.984375 5.382812 135.828125 C 5.007812 135.671875 4.648438 135.480469 4.308594 135.253906 C 3.972656 135.027344 3.65625 134.769531 3.371094 134.480469 C 3.082031 134.195312 2.824219 133.878906 2.597656 133.539062 C 2.371094 133.203125 2.179688 132.84375 2.023438 132.46875 C 1.867188 132.089844 1.75 131.703125 1.667969 131.300781 C 1.589844 130.902344 1.550781 130.5 1.550781 130.089844 Z M 1.550781 130.089844 " fill-opacity="1" fill-rule="nonzero"/><path fill="#decdff" d="M 32.207031 130.089844 C 32.207031 129.683594 32.246094 129.28125 32.324219 128.878906 C 32.40625 128.480469 32.523438 128.089844 32.679688 127.714844 C 32.835938 127.339844 33.027344 126.980469 33.253906 126.640625 C 33.480469 126.300781 33.738281 125.988281 34.023438 125.699219 C 34.3125 125.410156 34.628906 125.15625 34.964844 124.929688 C 35.304688 124.703125 35.664062 124.511719 36.039062 124.355469 C 36.417969 124.199219 36.804688 124.082031 37.203125 124 C 37.605469 123.921875 38.007812 123.882812 38.417969 123.882812 C 38.824219 123.882812 39.226562 123.921875 39.628906 124 C 40.027344 124.082031 40.414062 124.199219 40.792969 124.355469 C 41.167969 124.511719 41.527344 124.703125 41.867188 124.929688 C 42.207031 125.15625 42.519531 125.410156 42.808594 125.699219 C 43.09375 125.988281 43.351562 126.300781 43.578125 126.640625 C 43.804688 126.980469 43.996094 127.339844 44.152344 127.714844 C 44.308594 128.089844 44.425781 128.480469 44.507812 128.878906 C 44.585938 129.28125 44.625 129.683594 44.625 130.089844 C 44.625 130.5 44.585938 130.902344 44.507812 131.300781 C 44.425781 131.703125 44.308594 132.089844 44.152344 132.46875 C 43.996094 132.84375 43.804688 133.203125 43.578125 133.539062 C 43.351562 133.878906 43.09375 134.195312 42.808594 134.480469 C 42.519531 134.769531 42.207031 135.027344 41.867188 135.253906 C 41.527344 135.480469 41.167969 135.671875 40.792969 135.828125 C 40.414062 135.984375 40.027344 136.101562 39.628906 136.179688 C 39.226562 136.261719 38.824219 136.300781 38.417969 136.300781 C 38.007812 136.300781 37.605469 136.261719 37.203125 136.179688 C 36.804688 136.101562 36.417969 135.984375 36.039062 135.828125 C 35.664062 135.671875 35.304688 135.480469 34.964844 135.253906 C 34.628906 135.027344 34.3125 134.769531 34.023438 134.480469 C 33.738281 134.195312 33.480469 133.878906 33.253906 133.539062 C 33.027344 133.203125 32.835938 132.84375 32.679688 132.46875 C 32.523438 132.089844 32.40625 131.703125 32.324219 131.300781 C 32.246094 130.902344 32.207031 130.5 32.207031 130.089844 Z M 32.207031 130.089844 " fill-opacity="1" fill-rule="nonzero"/><path fill="#decdff" d="M 62.894531 130.089844 C 62.894531 129.683594 62.933594 129.28125 63.015625 128.878906 C 63.09375 128.480469 63.210938 128.089844 63.367188 127.714844 C 63.523438 127.339844 63.714844 126.980469 63.941406 126.640625 C 64.167969 126.300781 64.425781 125.988281 64.714844 125.699219 C 65.003906 125.410156 65.316406 125.15625 65.65625 124.929688 C 65.996094 124.703125 66.351562 124.511719 66.730469 124.355469 C 67.105469 124.199219 67.492188 124.082031 67.894531 124 C 68.292969 123.921875 68.699219 123.882812 69.105469 123.882812 C 69.511719 123.882812 69.917969 123.921875 70.316406 124 C 70.714844 124.082031 71.105469 124.199219 71.480469 124.355469 C 71.859375 124.511719 72.214844 124.703125 72.554688 124.929688 C 72.894531 125.15625 73.207031 125.410156 73.496094 125.699219 C 73.785156 125.988281 74.042969 126.300781 74.269531 126.640625 C 74.496094 126.980469 74.6875 127.339844 74.84375 127.714844 C 75 128.089844 75.117188 128.480469 75.195312 128.878906 C 75.273438 129.28125 75.316406 129.683594 75.316406 130.089844 C 75.316406 130.5 75.273438 130.902344 75.195312 131.300781 C 75.117188 131.703125 75 132.089844 74.84375 132.46875 C 74.6875 132.84375 74.496094 133.203125 74.269531 133.539062 C 74.042969 133.878906 73.785156 134.195312 73.496094 134.480469 C 73.207031 134.769531 72.894531 135.027344 72.554688 135.253906 C 72.214844 135.480469 71.859375 135.671875 71.480469 135.828125 C 71.105469 135.984375 70.714844 136.101562 70.316406 136.179688 C 69.917969 136.261719 69.511719 136.300781 69.105469 136.300781 C 68.699219 136.300781 68.292969 136.261719 67.894531 136.179688 C 67.492188 136.101562 67.105469 135.984375 66.730469 135.828125 C 66.351562 135.671875 65.996094 135.480469 65.65625 135.253906 C 65.316406 135.027344 65.003906 134.769531 64.714844 134.480469 C 64.425781 134.195312 64.167969 133.878906 63.941406 133.539062 C 63.714844 133.203125 63.523438 132.84375 63.367188 132.46875 C 63.210938 132.089844 63.09375 131.703125 63.015625 131.300781 C 62.933594 130.902344 62.894531 130.5 62.894531 130.089844 Z M 62.894531 130.089844 " fill-opacity="1" fill-rule="nonzero"/><path fill="#decdff" d="M 93.585938 130.089844 C 93.585938 129.683594 93.625 129.28125 93.703125 128.878906 C 93.785156 128.480469 93.902344 128.089844 94.058594 127.714844 C 94.214844 127.339844 94.40625 126.980469 94.632812 126.640625 C 94.855469 126.300781 95.113281 125.988281 95.402344 125.699219 C 95.691406 125.410156 96.003906 125.15625 96.34375 124.929688 C 96.683594 124.703125 97.039062 124.511719 97.417969 124.355469 C 97.792969 124.199219 98.183594 124.082031 98.582031 124 C 98.984375 123.921875 99.386719 123.882812 99.792969 123.882812 C 100.203125 123.882812 100.605469 123.921875 101.003906 124 C 101.40625 124.082031 101.792969 124.199219 102.171875 124.355469 C 102.546875 124.511719 102.90625 124.703125 103.242188 124.929688 C 103.582031 125.15625 103.898438 125.410156 104.183594 125.699219 C 104.472656 125.988281 104.730469 126.300781 104.957031 126.640625 C 105.183594 126.980469 105.375 127.339844 105.53125 127.714844 C 105.6875 128.089844 105.804688 128.480469 105.882812 128.878906 C 105.964844 129.28125 106.003906 129.683594 106.003906 130.089844 C 106.003906 130.5 105.964844 130.902344 105.882812 131.300781 C 105.804688 131.703125 105.6875 132.089844 105.53125 132.46875 C 105.375 132.84375 105.183594 133.203125 104.957031 133.539062 C 104.730469 133.878906 104.472656 134.195312 104.183594 134.480469 C 103.898438 134.769531 103.582031 135.027344 103.242188 135.253906 C 102.90625 135.480469 102.546875 135.671875 102.171875 135.828125 C 101.792969 135.984375 101.40625 136.101562 101.003906 136.179688 C 100.605469 136.261719 100.203125 136.300781 99.792969 136.300781 C 99.386719 136.300781 98.984375 136.261719 98.582031 136.179688 C 98.183594 136.101562 97.792969 135.984375 97.417969 135.828125 C 97.039062 135.671875 96.683594 135.480469 96.34375 135.253906 C 96.003906 135.027344 95.691406 134.769531 95.402344 134.480469 C 95.113281 134.195312 94.855469 133.878906 94.632812 133.539062 C 94.40625 133.203125 94.214844 132.84375 94.058594 132.46875 C 93.902344 132.089844 93.785156 131.703125 93.703125 131.300781 C 93.625 130.902344 93.585938 130.5 93.585938 130.089844 Z M 93.585938 130.089844 " fill-opacity="1" fill-rule="nonzero"/><path fill="#decdff" d="M 124.242188 130.089844 C 124.242188 129.683594 124.28125 129.28125 124.359375 128.878906 C 124.4375 128.480469 124.558594 128.089844 124.714844 127.714844 C 124.871094 127.339844 125.0625 126.980469 125.285156 126.640625 C 125.511719 126.300781 125.769531 125.988281 126.058594 125.699219 C 126.347656 125.410156 126.660156 125.15625 127 124.929688 C 127.339844 124.703125 127.695312 124.511719 128.074219 124.355469 C 128.449219 124.199219 128.839844 124.082031 129.238281 124 C 129.640625 123.921875 130.042969 123.882812 130.449219 123.882812 C 130.859375 123.882812 131.261719 123.921875 131.660156 124 C 132.0625 124.082031 132.449219 124.199219 132.828125 124.355469 C 133.203125 124.511719 133.5625 124.703125 133.898438 124.929688 C 134.238281 125.15625 134.554688 125.410156 134.839844 125.699219 C 135.128906 125.988281 135.386719 126.300781 135.613281 126.640625 C 135.839844 126.980469 136.03125 127.339844 136.1875 127.714844 C 136.34375 128.089844 136.460938 128.480469 136.539062 128.878906 C 136.621094 129.28125 136.660156 129.683594 136.660156 130.089844 C 136.660156 130.5 136.621094 130.902344 136.539062 131.300781 C 136.460938 131.703125 136.34375 132.089844 136.1875 132.46875 C 136.03125 132.84375 135.839844 133.203125 135.613281 133.539062 C 135.386719 133.878906 135.128906 134.195312 134.839844 134.480469 C 134.554688 134.769531 134.238281 135.027344 133.898438 135.253906 C 133.5625 135.480469 133.203125 135.671875 132.828125 135.828125 C 132.449219 135.984375 132.0625 136.101562 131.660156 136.179688 C 131.261719 136.261719 130.859375 136.300781 130.449219 136.300781 C 130.042969 136.300781 129.640625 136.261719 129.238281 136.179688 C 128.839844 136.101562 128.449219 135.984375 128.074219 135.828125 C 127.695312 135.671875 127.339844 135.480469 127 135.253906 C 126.660156 135.027344 126.347656 134.769531 126.058594 134.480469 C 125.769531 134.195312 125.511719 133.878906 125.289062 133.539062 C 125.0625 133.203125 124.871094 132.84375 124.714844 132.46875 C 124.558594 132.089844 124.441406 131.703125 124.359375 131.300781 C 124.28125 130.902344 124.242188 130.5 124.242188 130.089844 Z M 124.242188 130.089844 " fill-opacity="1" fill-rule="nonzero"/><path fill="#decdff" d="M 1.550781 160.257812 C 1.550781 159.847656 1.589844 159.445312 1.667969 159.046875 C 1.75 158.644531 1.867188 158.257812 2.023438 157.878906 C 2.179688 157.503906 2.371094 157.144531 2.597656 156.808594 C 2.824219 156.46875 3.082031 156.15625 3.367188 155.867188 C 3.65625 155.578125 3.972656 155.320312 4.308594 155.09375 C 4.648438 154.867188 5.007812 154.675781 5.382812 154.519531 C 5.761719 154.363281 6.148438 154.246094 6.546875 154.167969 C 6.949219 154.085938 7.351562 154.046875 7.761719 154.046875 C 8.167969 154.046875 8.570312 154.085938 8.972656 154.167969 C 9.371094 154.246094 9.757812 154.363281 10.136719 154.519531 C 10.511719 154.675781 10.871094 154.867188 11.210938 155.09375 C 11.550781 155.320312 11.863281 155.578125 12.152344 155.867188 C 12.4375 156.15625 12.695312 156.46875 12.921875 156.808594 C 13.148438 157.144531 13.339844 157.503906 13.496094 157.878906 C 13.652344 158.257812 13.769531 158.644531 13.851562 159.046875 C 13.929688 159.445312 13.96875 159.847656 13.96875 160.257812 C 13.96875 160.664062 13.929688 161.070312 13.851562 161.46875 C 13.769531 161.867188 13.652344 162.257812 13.496094 162.632812 C 13.339844 163.011719 13.148438 163.367188 12.921875 163.707031 C 12.695312 164.046875 12.4375 164.359375 12.152344 164.648438 C 11.863281 164.9375 11.550781 165.195312 11.210938 165.421875 C 10.871094 165.648438 10.511719 165.839844 10.136719 165.992188 C 9.757812 166.148438 9.371094 166.269531 8.972656 166.347656 C 8.570312 166.425781 8.167969 166.464844 7.761719 166.464844 C 7.351562 166.464844 6.949219 166.425781 6.546875 166.347656 C 6.148438 166.269531 5.761719 166.148438 5.382812 165.992188 C 5.007812 165.839844 4.648438 165.648438 4.308594 165.421875 C 3.972656 165.195312 3.65625 164.9375 3.371094 164.648438 C 3.082031 164.359375 2.824219 164.046875 2.597656 163.707031 C 2.371094 163.367188 2.179688 163.011719 2.023438 162.632812 C 1.867188 162.257812 1.75 161.867188 1.667969 161.46875 C 1.589844 161.070312 1.550781 160.664062 1.550781 160.257812 Z M 1.550781 160.257812 " fill-opacity="1" fill-rule="nonzero"/><path fill="#decdff" d="M 32.207031 160.257812 C 32.207031 159.847656 32.246094 159.445312 32.324219 159.046875 C 32.40625 158.644531 32.523438 158.257812 32.679688 157.878906 C 32.835938 157.503906 33.027344 157.144531 33.253906 156.808594 C 33.480469 156.46875 33.738281 156.15625 34.023438 155.867188 C 34.3125 155.578125 34.628906 155.320312 34.964844 155.09375 C 35.304688 154.867188 35.664062 154.675781 36.039062 154.519531 C 36.417969 154.363281 36.804688 154.246094 37.203125 154.167969 C 37.605469 154.085938 38.007812 154.046875 38.417969 154.046875 C 38.824219 154.046875 39.226562 154.085938 39.628906 154.167969 C 40.027344 154.246094 40.414062 154.363281 40.792969 154.519531 C 41.167969 154.675781 41.527344 154.867188 41.867188 155.09375 C 42.207031 155.320312 42.519531 155.578125 42.808594 155.867188 C 43.09375 156.15625 43.351562 156.46875 43.578125 156.808594 C 43.804688 157.144531 43.996094 157.503906 44.152344 157.878906 C 44.308594 158.257812 44.425781 158.644531 44.507812 159.046875 C 44.585938 159.445312 44.625 159.847656 44.625 160.257812 C 44.625 160.664062 44.585938 161.070312 44.507812 161.46875 C 44.425781 161.867188 44.308594 162.257812 44.152344 162.632812 C 43.996094 163.011719 43.804688 163.367188 43.578125 163.707031 C 43.351562 164.046875 43.09375 164.359375 42.808594 164.648438 C 42.519531 164.9375 42.207031 165.195312 41.867188 165.421875 C 41.527344 165.648438 41.167969 165.839844 40.792969 165.992188 C 40.414062 166.148438 40.027344 166.269531 39.628906 166.347656 C 39.226562 166.425781 38.824219 166.464844 38.417969 166.464844 C 38.007812 166.464844 37.605469 166.425781 37.203125 166.347656 C 36.804688 166.269531 36.417969 166.148438 36.039062 165.992188 C 35.664062 165.839844 35.304688 165.648438 34.964844 165.421875 C 34.628906 165.195312 34.3125 164.9375 34.023438 164.648438 C 33.738281 164.359375 33.480469 164.046875 33.253906 163.707031 C 33.027344 163.367188 32.835938 163.011719 32.679688 162.632812 C 32.523438 162.257812 32.40625 161.867188 32.324219 161.46875 C 32.246094 161.070312 32.207031 160.664062 32.207031 160.257812 Z M 32.207031 160.257812 " fill-opacity="1" fill-rule="nonzero"/><path fill="#decdff" d="M 62.894531 160.257812 C 62.894531 159.847656 62.933594 159.445312 63.015625 159.046875 C 63.09375 158.644531 63.210938 158.257812 63.367188 157.878906 C 63.523438 157.503906 63.714844 157.144531 63.941406 156.808594 C 64.167969 156.46875 64.425781 156.15625 64.714844 155.867188 C 65.003906 155.578125 65.316406 155.320312 65.65625 155.09375 C 65.996094 154.867188 66.351562 154.675781 66.730469 154.519531 C 67.105469 154.363281 67.492188 154.246094 67.894531 154.167969 C 68.292969 154.085938 68.699219 154.046875 69.105469 154.046875 C 69.511719 154.046875 69.917969 154.085938 70.316406 154.167969 C 70.714844 154.246094 71.105469 154.363281 71.480469 154.519531 C 71.859375 154.675781 72.214844 154.867188 72.554688 155.09375 C 72.894531 155.320312 73.207031 155.578125 73.496094 155.867188 C 73.785156 156.15625 74.042969 156.46875 74.269531 156.808594 C 74.496094 157.144531 74.6875 157.503906 74.84375 157.878906 C 75 158.257812 75.117188 158.644531 75.195312 159.046875 C 75.273438 159.445312 75.316406 159.847656 75.316406 160.257812 C 75.316406 160.664062 75.273438 161.070312 75.195312 161.46875 C 75.117188 161.867188 75 162.257812 74.84375 162.632812 C 74.6875 163.011719 74.496094 163.367188 74.269531 163.707031 C 74.042969 164.046875 73.785156 164.359375 73.496094 164.648438 C 73.207031 164.9375 72.894531 165.195312 72.554688 165.421875 C 72.214844 165.648438 71.859375 165.839844 71.480469 165.992188 C 71.105469 166.148438 70.714844 166.269531 70.316406 166.347656 C 69.917969 166.425781 69.511719 166.464844 69.105469 166.464844 C 68.699219 166.464844 68.292969 166.425781 67.894531 166.347656 C 67.492188 166.269531 67.105469 166.148438 66.730469 165.992188 C 66.351562 165.839844 65.996094 165.648438 65.65625 165.421875 C 65.316406 165.195312 65.003906 164.9375 64.714844 164.648438 C 64.425781 164.359375 64.167969 164.046875 63.941406 163.707031 C 63.714844 163.367188 63.523438 163.011719 63.367188 162.632812 C 63.210938 162.257812 63.09375 161.867188 63.015625 161.46875 C 62.933594 161.070312 62.894531 160.664062 62.894531 160.257812 Z M 62.894531 160.257812 " fill-opacity="1" fill-rule="nonzero"/><path fill="#decdff" d="M 93.585938 160.257812 C 93.585938 159.847656 93.625 159.445312 93.703125 159.046875 C 93.785156 158.644531 93.902344 158.257812 94.058594 157.878906 C 94.214844 157.503906 94.40625 157.144531 94.632812 156.808594 C 94.855469 156.46875 95.113281 156.15625 95.402344 155.867188 C 95.691406 155.578125 96.003906 155.320312 96.34375 155.09375 C 96.683594 154.867188 97.039062 154.675781 97.417969 154.519531 C 97.792969 154.363281 98.183594 154.246094 98.582031 154.167969 C 98.984375 154.085938 99.386719 154.046875 99.792969 154.046875 C 100.203125 154.046875 100.605469 154.085938 101.003906 154.167969 C 101.40625 154.246094 101.792969 154.363281 102.171875 154.519531 C 102.546875 154.675781 102.90625 154.867188 103.242188 155.09375 C 103.582031 155.320312 103.898438 155.578125 104.183594 155.867188 C 104.472656 156.15625 104.730469 156.46875 104.957031 156.808594 C 105.183594 157.144531 105.375 157.503906 105.53125 157.878906 C 105.6875 158.257812 105.804688 158.644531 105.882812 159.046875 C 105.964844 159.445312 106.003906 159.847656 106.003906 160.257812 C 106.003906 160.664062 105.964844 161.070312 105.882812 161.46875 C 105.804688 161.867188 105.6875 162.257812 105.53125 162.632812 C 105.375 163.011719 105.183594 163.367188 104.957031 163.707031 C 104.730469 164.046875 104.472656 164.359375 104.183594 164.648438 C 103.898438 164.9375 103.582031 165.195312 103.242188 165.421875 C 102.90625 165.648438 102.546875 165.839844 102.171875 165.992188 C 101.792969 166.148438 101.40625 166.269531 101.003906 166.347656 C 100.605469 166.425781 100.203125 166.464844 99.792969 166.464844 C 99.386719 166.464844 98.984375 166.425781 98.582031 166.347656 C 98.183594 166.269531 97.792969 166.148438 97.417969 165.992188 C 97.039062 165.839844 96.683594 165.648438 96.34375 165.421875 C 96.003906 165.195312 95.691406 164.9375 95.402344 164.648438 C 95.113281 164.359375 94.855469 164.046875 94.632812 163.707031 C 94.40625 163.367188 94.214844 163.011719 94.058594 162.632812 C 93.902344 162.257812 93.785156 161.867188 93.703125 161.46875 C 93.625 161.070312 93.585938 160.664062 93.585938 160.257812 Z M 93.585938 160.257812 " fill-opacity="1" fill-rule="nonzero"/><path fill="#decdff" d="M 124.242188 160.257812 C 124.242188 159.847656 124.28125 159.445312 124.359375 159.046875 C 124.4375 158.644531 124.558594 158.257812 124.714844 157.878906 C 124.871094 157.503906 125.0625 157.144531 125.285156 156.808594 C 125.511719 156.46875 125.769531 156.15625 126.058594 155.867188 C 126.347656 155.578125 126.660156 155.320312 127 155.09375 C 127.339844 154.867188 127.695312 154.675781 128.074219 154.519531 C 128.449219 154.363281 128.839844 154.246094 129.238281 154.167969 C 129.640625 154.085938 130.042969 154.046875 130.449219 154.046875 C 130.859375 154.046875 131.261719 154.085938 131.660156 154.167969 C 132.0625 154.246094 132.449219 154.363281 132.828125 154.519531 C 133.203125 154.675781 133.5625 154.867188 133.898438 155.09375 C 134.238281 155.320312 134.554688 155.578125 134.839844 155.867188 C 135.128906 156.15625 135.386719 156.46875 135.613281 156.808594 C 135.839844 157.144531 136.03125 157.503906 136.1875 157.878906 C 136.34375 158.257812 136.460938 158.644531 136.539062 159.046875 C 136.621094 159.445312 136.660156 159.847656 136.660156 160.257812 C 136.660156 160.664062 136.621094 161.070312 136.539062 161.46875 C 136.460938 161.867188 136.34375 162.257812 136.1875 162.632812 C 136.03125 163.011719 135.839844 163.367188 135.613281 163.707031 C 135.386719 164.046875 135.128906 164.359375 134.839844 164.648438 C 134.554688 164.9375 134.238281 165.195312 133.898438 165.421875 C 133.5625 165.648438 133.203125 165.839844 132.828125 165.992188 C 132.449219 166.148438 132.0625 166.269531 131.660156 166.347656 C 131.261719 166.425781 130.859375 166.464844 130.449219 166.464844 C 130.042969 166.464844 129.640625 166.425781 129.238281 166.347656 C 128.839844 166.269531 128.449219 166.148438 128.074219 165.992188 C 127.695312 165.839844 127.339844 165.648438 127 165.421875 C 126.660156 165.195312 126.347656 164.9375 126.058594 164.648438 C 125.769531 164.359375 125.511719 164.046875 125.289062 163.707031 C 125.0625 163.367188 124.871094 163.011719 124.714844 162.632812 C 124.558594 162.257812 124.441406 161.867188 124.359375 161.46875 C 124.28125 161.070312 124.242188 160.664062 124.242188 160.257812 Z M 124.242188 160.257812 " fill-opacity="1" fill-rule="nonzero"/><path fill="#decdff" d="M 154.929688 160.257812 C 154.929688 159.847656 154.96875 159.445312 155.046875 159.046875 C 155.128906 158.644531 155.246094 158.257812 155.402344 157.878906 C 155.558594 157.503906 155.75 157.144531 155.976562 156.808594 C 156.203125 156.46875 156.460938 156.15625 156.75 155.867188 C 157.035156 155.578125 157.351562 155.320312 157.6875 155.09375 C 158.027344 154.867188 158.386719 154.675781 158.761719 154.519531 C 159.140625 154.363281 159.527344 154.246094 159.925781 154.167969 C 160.328125 154.085938 160.730469 154.046875 161.140625 154.046875 C 161.546875 154.046875 161.949219 154.085938 162.351562 154.167969 C 162.75 154.246094 163.140625 154.363281 163.515625 154.519531 C 163.890625 154.675781 164.25 154.867188 164.589844 155.09375 C 164.929688 155.320312 165.242188 155.578125 165.53125 155.867188 C 165.820312 156.15625 166.074219 156.46875 166.300781 156.808594 C 166.527344 157.144531 166.71875 157.503906 166.875 157.878906 C 167.03125 158.257812 167.148438 158.644531 167.230469 159.046875 C 167.308594 159.445312 167.347656 159.847656 167.347656 160.257812 C 167.347656 160.664062 167.308594 161.070312 167.230469 161.46875 C 167.148438 161.867188 167.03125 162.257812 166.875 162.632812 C 166.71875 163.011719 166.527344 163.367188 166.300781 163.707031 C 166.074219 164.046875 165.820312 164.359375 165.53125 164.648438 C 165.242188 164.9375 164.929688 165.195312 164.589844 165.421875 C 164.25 165.648438 163.890625 165.839844 163.515625 165.992188 C 163.140625 166.148438 162.75 166.269531 162.351562 166.347656 C 161.949219 166.425781 161.546875 166.464844 161.140625 166.464844 C 160.730469 166.464844 160.328125 166.425781 159.925781 166.347656 C 159.527344 166.269531 159.140625 166.148438 158.761719 165.992188 C 158.386719 165.839844 158.027344 165.648438 157.6875 165.421875 C 157.351562 165.195312 157.035156 164.9375 156.75 164.648438 C 156.460938 164.359375 156.203125 164.046875 155.976562 163.707031 C 155.75 163.367188 155.558594 163.011719 155.402344 162.632812 C 155.246094 162.257812 155.128906 161.867188 155.046875 161.46875 C 154.96875 161.070312 154.929688 160.664062 154.929688 160.257812 Z M 154.929688 160.257812 " fill-opacity="1" fill-rule="nonzero"/><path fill="#decdff" d="M 1.550781 190.421875 C 1.550781 190.015625 1.589844 189.613281 1.667969 189.210938 C 1.75 188.8125 1.867188 188.421875 2.023438 188.046875 C 2.179688 187.667969 2.371094 187.3125 2.597656 186.972656 C 2.824219 186.632812 3.082031 186.320312 3.367188 186.03125 C 3.65625 185.742188 3.972656 185.484375 4.308594 185.261719 C 4.648438 185.035156 5.007812 184.84375 5.382812 184.6875 C 5.761719 184.53125 6.148438 184.414062 6.546875 184.332031 C 6.949219 184.253906 7.351562 184.214844 7.761719 184.214844 C 8.167969 184.214844 8.570312 184.253906 8.972656 184.332031 C 9.371094 184.414062 9.757812 184.53125 10.136719 184.6875 C 10.511719 184.84375 10.871094 185.035156 11.210938 185.257812 C 11.550781 185.484375 11.863281 185.742188 12.152344 186.03125 C 12.4375 186.320312 12.695312 186.632812 12.921875 186.972656 C 13.148438 187.3125 13.339844 187.667969 13.496094 188.046875 C 13.652344 188.421875 13.769531 188.8125 13.851562 189.210938 C 13.929688 189.613281 13.96875 190.015625 13.96875 190.421875 C 13.96875 190.832031 13.929688 191.234375 13.851562 191.632812 C 13.769531 192.035156 13.652344 192.421875 13.496094 192.800781 C 13.339844 193.175781 13.148438 193.535156 12.921875 193.871094 C 12.695312 194.210938 12.4375 194.527344 12.152344 194.8125 C 11.863281 195.101562 11.550781 195.359375 11.210938 195.585938 C 10.871094 195.8125 10.511719 196.003906 10.136719 196.160156 C 9.757812 196.316406 9.371094 196.433594 8.972656 196.511719 C 8.570312 196.59375 8.167969 196.632812 7.761719 196.632812 C 7.351562 196.632812 6.949219 196.59375 6.546875 196.511719 C 6.148438 196.433594 5.761719 196.316406 5.382812 196.160156 C 5.007812 196.003906 4.648438 195.8125 4.308594 195.585938 C 3.972656 195.359375 3.65625 195.101562 3.371094 194.8125 C 3.082031 194.527344 2.824219 194.210938 2.597656 193.871094 C 2.371094 193.535156 2.179688 193.175781 2.023438 192.800781 C 1.867188 192.421875 1.75 192.035156 1.667969 191.632812 C 1.589844 191.234375 1.550781 190.832031 1.550781 190.421875 Z M 1.550781 190.421875 " fill-opacity="1" fill-rule="nonzero"/><path fill="#decdff" d="M 32.207031 190.421875 C 32.207031 190.015625 32.246094 189.613281 32.324219 189.210938 C 32.40625 188.8125 32.523438 188.421875 32.679688 188.046875 C 32.835938 187.667969 33.027344 187.3125 33.253906 186.972656 C 33.480469 186.632812 33.738281 186.320312 34.023438 186.03125 C 34.3125 185.742188 34.628906 185.484375 34.964844 185.261719 C 35.304688 185.035156 35.664062 184.84375 36.039062 184.6875 C 36.417969 184.53125 36.804688 184.414062 37.203125 184.332031 C 37.605469 184.253906 38.007812 184.214844 38.417969 184.214844 C 38.824219 184.214844 39.226562 184.253906 39.628906 184.332031 C 40.027344 184.414062 40.414062 184.53125 40.792969 184.6875 C 41.167969 184.84375 41.527344 185.035156 41.867188 185.257812 C 42.207031 185.484375 42.519531 185.742188 42.808594 186.03125 C 43.09375 186.320312 43.351562 186.632812 43.578125 186.972656 C 43.804688 187.3125 43.996094 187.667969 44.152344 188.046875 C 44.308594 188.421875 44.425781 188.8125 44.507812 189.210938 C 44.585938 189.613281 44.625 190.015625 44.625 190.421875 C 44.625 190.832031 44.585938 191.234375 44.507812 191.632812 C 44.425781 192.035156 44.308594 192.421875 44.152344 192.800781 C 43.996094 193.175781 43.804688 193.535156 43.578125 193.871094 C 43.351562 194.210938 43.09375 194.527344 42.808594 194.8125 C 42.519531 195.101562 42.207031 195.359375 41.867188 195.585938 C 41.527344 195.8125 41.167969 196.003906 40.792969 196.160156 C 40.414062 196.316406 40.027344 196.433594 39.628906 196.511719 C 39.226562 196.59375 38.824219 196.632812 38.417969 196.632812 C 38.007812 196.632812 37.605469 196.59375 37.203125 196.511719 C 36.804688 196.433594 36.417969 196.316406 36.039062 196.160156 C 35.664062 196.003906 35.304688 195.8125 34.964844 195.585938 C 34.628906 195.359375 34.3125 195.101562 34.023438 194.8125 C 33.738281 194.527344 33.480469 194.210938 33.253906 193.871094 C 33.027344 193.535156 32.835938 193.175781 32.679688 192.800781 C 32.523438 192.421875 32.40625 192.035156 32.324219 191.632812 C 32.246094 191.234375 32.207031 190.832031 32.207031 190.421875 Z M 32.207031 190.421875 " fill-opacity="1" fill-rule="nonzero"/><path fill="#decdff" d="M 62.894531 190.421875 C 62.894531 190.015625 62.933594 189.613281 63.015625 189.210938 C 63.09375 188.8125 63.210938 188.421875 63.367188 188.046875 C 63.523438 187.667969 63.714844 187.3125 63.941406 186.972656 C 64.167969 186.632812 64.425781 186.320312 64.714844 186.03125 C 65.003906 185.742188 65.316406 185.484375 65.65625 185.261719 C 65.996094 185.035156 66.351562 184.84375 66.730469 184.6875 C 67.105469 184.53125 67.492188 184.414062 67.894531 184.332031 C 68.292969 184.253906 68.699219 184.214844 69.105469 184.214844 C 69.511719 184.214844 69.917969 184.253906 70.316406 184.332031 C 70.714844 184.414062 71.105469 184.53125 71.480469 184.6875 C 71.859375 184.84375 72.214844 185.035156 72.554688 185.257812 C 72.894531 185.484375 73.207031 185.742188 73.496094 186.03125 C 73.785156 186.320312 74.042969 186.632812 74.269531 186.972656 C 74.496094 187.3125 74.6875 187.667969 74.84375 188.046875 C 75 188.421875 75.117188 188.8125 75.195312 189.210938 C 75.273438 189.613281 75.316406 190.015625 75.316406 190.421875 C 75.316406 190.832031 75.273438 191.234375 75.195312 191.632812 C 75.117188 192.035156 75 192.421875 74.84375 192.800781 C 74.6875 193.175781 74.496094 193.535156 74.269531 193.871094 C 74.042969 194.210938 73.785156 194.527344 73.496094 194.8125 C 73.207031 195.101562 72.894531 195.359375 72.554688 195.585938 C 72.214844 195.8125 71.859375 196.003906 71.480469 196.160156 C 71.105469 196.316406 70.714844 196.433594 70.316406 196.511719 C 69.917969 196.59375 69.511719 196.632812 69.105469 196.632812 C 68.699219 196.632812 68.292969 196.59375 67.894531 196.511719 C 67.492188 196.433594 67.105469 196.316406 66.730469 196.160156 C 66.351562 196.003906 65.996094 195.8125 65.65625 195.585938 C 65.316406 195.359375 65.003906 195.101562 64.714844 194.8125 C 64.425781 194.527344 64.167969 194.210938 63.941406 193.871094 C 63.714844 193.535156 63.523438 193.175781 63.367188 192.800781 C 63.210938 192.421875 63.09375 192.035156 63.015625 191.632812 C 62.933594 191.234375 62.894531 190.832031 62.894531 190.421875 Z M 62.894531 190.421875 " fill-opacity="1" fill-rule="nonzero"/><path fill="#decdff" d="M 93.585938 190.421875 C 93.585938 190.015625 93.625 189.613281 93.703125 189.210938 C 93.785156 188.8125 93.902344 188.421875 94.058594 188.046875 C 94.214844 187.667969 94.40625 187.3125 94.632812 186.972656 C 94.855469 186.632812 95.113281 186.320312 95.402344 186.03125 C 95.691406 185.742188 96.003906 185.484375 96.34375 185.261719 C 96.683594 185.035156 97.039062 184.84375 97.417969 184.6875 C 97.792969 184.53125 98.183594 184.414062 98.582031 184.332031 C 98.984375 184.253906 99.386719 184.214844 99.792969 184.214844 C 100.203125 184.214844 100.605469 184.253906 101.003906 184.332031 C 101.40625 184.414062 101.792969 184.53125 102.171875 184.6875 C 102.546875 184.84375 102.90625 185.035156 103.242188 185.257812 C 103.582031 185.484375 103.898438 185.742188 104.183594 186.03125 C 104.472656 186.320312 104.730469 186.632812 104.957031 186.972656 C 105.183594 187.3125 105.375 187.667969 105.53125 188.046875 C 105.6875 188.421875 105.804688 188.8125 105.882812 189.210938 C 105.964844 189.613281 106.003906 190.015625 106.003906 190.421875 C 106.003906 190.832031 105.964844 191.234375 105.882812 191.632812 C 105.804688 192.035156 105.6875 192.421875 105.53125 192.800781 C 105.375 193.175781 105.183594 193.535156 104.957031 193.871094 C 104.730469 194.210938 104.472656 194.527344 104.183594 194.8125 C 103.898438 195.101562 103.582031 195.359375 103.242188 195.585938 C 102.90625 195.8125 102.546875 196.003906 102.171875 196.160156 C 101.792969 196.316406 101.40625 196.433594 101.003906 196.511719 C 100.605469 196.59375 100.203125 196.632812 99.792969 196.632812 C 99.386719 196.632812 98.984375 196.59375 98.582031 196.511719 C 98.183594 196.433594 97.792969 196.316406 97.417969 196.160156 C 97.039062 196.003906 96.683594 195.8125 96.34375 195.585938 C 96.003906 195.359375 95.691406 195.101562 95.402344 194.8125 C 95.113281 194.527344 94.855469 194.210938 94.632812 193.871094 C 94.40625 193.535156 94.214844 193.175781 94.058594 192.800781 C 93.902344 192.421875 93.785156 192.035156 93.703125 191.632812 C 93.625 191.234375 93.585938 190.832031 93.585938 190.421875 Z M 93.585938 190.421875 " fill-opacity="1" fill-rule="nonzero"/><path fill="#decdff" d="M 124.242188 190.421875 C 124.242188 190.015625 124.28125 189.613281 124.359375 189.210938 C 124.4375 188.8125 124.558594 188.421875 124.714844 188.046875 C 124.871094 187.667969 125.0625 187.3125 125.285156 186.972656 C 125.511719 186.632812 125.769531 186.320312 126.058594 186.03125 C 126.347656 185.742188 126.660156 185.484375 127 185.261719 C 127.339844 185.035156 127.695312 184.84375 128.074219 184.6875 C 128.449219 184.53125 128.839844 184.414062 129.238281 184.332031 C 129.640625 184.253906 130.042969 184.214844 130.449219 184.214844 C 130.859375 184.214844 131.261719 184.253906 131.660156 184.332031 C 132.0625 184.414062 132.449219 184.53125 132.828125 184.6875 C 133.203125 184.84375 133.5625 185.035156 133.898438 185.257812 C 134.238281 185.484375 134.554688 185.742188 134.839844 186.03125 C 135.128906 186.320312 135.386719 186.632812 135.613281 186.972656 C 135.839844 187.3125 136.03125 187.667969 136.1875 188.046875 C 136.34375 188.421875 136.460938 188.8125 136.539062 189.210938 C 136.621094 189.613281 136.660156 190.015625 136.660156 190.421875 C 136.660156 190.832031 136.621094 191.234375 136.539062 191.632812 C 136.460938 192.035156 136.34375 192.421875 136.1875 192.800781 C 136.03125 193.175781 135.839844 193.535156 135.613281 193.871094 C 135.386719 194.210938 135.128906 194.527344 134.839844 194.8125 C 134.554688 195.101562 134.238281 195.359375 133.898438 195.585938 C 133.5625 195.8125 133.203125 196.003906 132.828125 196.160156 C 132.449219 196.316406 132.0625 196.433594 131.660156 196.511719 C 131.261719 196.59375 130.859375 196.632812 130.449219 196.632812 C 130.042969 196.632812 129.640625 196.59375 129.238281 196.511719 C 128.839844 196.433594 128.449219 196.316406 128.074219 196.160156 C 127.695312 196.003906 127.339844 195.8125 127 195.585938 C 126.660156 195.359375 126.347656 195.101562 126.058594 194.8125 C 125.769531 194.527344 125.511719 194.210938 125.289062 193.871094 C 125.0625 193.535156 124.871094 193.175781 124.714844 192.800781 C 124.558594 192.421875 124.441406 192.035156 124.359375 191.632812 C 124.28125 191.234375 124.242188 190.832031 124.242188 190.421875 Z M 124.242188 190.421875 " fill-opacity="1" fill-rule="nonzero"/><path fill="#decdff" d="M 154.929688 190.421875 C 154.929688 190.015625 154.96875 189.613281 155.046875 189.210938 C 155.128906 188.8125 155.246094 188.421875 155.402344 188.046875 C 155.558594 187.667969 155.75 187.3125 155.976562 186.972656 C 156.203125 186.632812 156.460938 186.320312 156.75 186.03125 C 157.035156 185.742188 157.351562 185.484375 157.6875 185.261719 C 158.027344 185.035156 158.386719 184.84375 158.761719 184.6875 C 159.140625 184.53125 159.527344 184.414062 159.925781 184.332031 C 160.328125 184.253906 160.730469 184.214844 161.140625 184.214844 C 161.546875 184.214844 161.949219 184.253906 162.351562 184.332031 C 162.75 184.414062 163.140625 184.53125 163.515625 184.6875 C 163.890625 184.84375 164.25 185.035156 164.589844 185.257812 C 164.929688 185.484375 165.242188 185.742188 165.53125 186.03125 C 165.820312 186.320312 166.074219 186.632812 166.300781 186.972656 C 166.527344 187.3125 166.71875 187.667969 166.875 188.046875 C 167.03125 188.421875 167.148438 188.8125 167.230469 189.210938 C 167.308594 189.613281 167.347656 190.015625 167.347656 190.421875 C 167.347656 190.832031 167.308594 191.234375 167.230469 191.632812 C 167.148438 192.035156 167.03125 192.421875 166.875 192.800781 C 166.71875 193.175781 166.527344 193.535156 166.300781 193.871094 C 166.074219 194.210938 165.820312 194.527344 165.53125 194.8125 C 165.242188 195.101562 164.929688 195.359375 164.589844 195.585938 C 164.25 195.8125 163.890625 196.003906 163.515625 196.160156 C 163.140625 196.316406 162.75 196.433594 162.351562 196.511719 C 161.949219 196.59375 161.546875 196.632812 161.140625 196.632812 C 160.730469 196.632812 160.328125 196.59375 159.925781 196.511719 C 159.527344 196.433594 159.140625 196.316406 158.761719 196.160156 C 158.386719 196.003906 158.027344 195.8125 157.6875 195.585938 C 157.351562 195.359375 157.035156 195.101562 156.75 194.8125 C 156.460938 194.527344 156.203125 194.210938 155.976562 193.871094 C 155.75 193.535156 155.558594 193.175781 155.402344 192.800781 C 155.246094 192.421875 155.128906 192.035156 155.046875 191.632812 C 154.96875 191.234375 154.929688 190.832031 154.929688 190.421875 Z M 154.929688 190.421875 " fill-opacity="1" fill-rule="nonzero"/><path fill="#decdff" d="M 185.617188 190.421875 C 185.617188 190.015625 185.65625 189.613281 185.738281 189.210938 C 185.816406 188.8125 185.933594 188.421875 186.089844 188.046875 C 186.246094 187.667969 186.4375 187.3125 186.664062 186.972656 C 186.890625 186.632812 187.148438 186.320312 187.4375 186.03125 C 187.726562 185.742188 188.039062 185.484375 188.378906 185.261719 C 188.71875 185.035156 189.074219 184.84375 189.453125 184.6875 C 189.828125 184.53125 190.214844 184.414062 190.617188 184.332031 C 191.015625 184.253906 191.421875 184.214844 191.828125 184.214844 C 192.234375 184.214844 192.640625 184.253906 193.039062 184.332031 C 193.4375 184.414062 193.828125 184.53125 194.203125 184.6875 C 194.582031 184.84375 194.9375 185.035156 195.277344 185.257812 C 195.617188 185.484375 195.929688 185.742188 196.21875 186.03125 C 196.507812 186.320312 196.765625 186.632812 196.992188 186.972656 C 197.21875 187.3125 197.410156 187.667969 197.566406 188.046875 C 197.722656 188.421875 197.839844 188.8125 197.917969 189.210938 C 197.996094 189.613281 198.039062 190.015625 198.039062 190.421875 C 198.039062 190.832031 197.996094 191.234375 197.917969 191.632812 C 197.839844 192.035156 197.722656 192.421875 197.566406 192.800781 C 197.410156 193.175781 197.21875 193.535156 196.992188 193.871094 C 196.765625 194.210938 196.507812 194.527344 196.21875 194.8125 C 195.929688 195.101562 195.617188 195.359375 195.277344 195.585938 C 194.9375 195.8125 194.582031 196.003906 194.203125 196.160156 C 193.828125 196.316406 193.4375 196.433594 193.039062 196.511719 C 192.640625 196.59375 192.234375 196.632812 191.828125 196.632812 C 191.421875 196.632812 191.015625 196.59375 190.617188 196.511719 C 190.214844 196.433594 189.828125 196.316406 189.453125 196.160156 C 189.074219 196.003906 188.71875 195.8125 188.378906 195.585938 C 188.039062 195.359375 187.726562 195.101562 187.4375 194.8125 C 187.148438 194.527344 186.890625 194.210938 186.664062 193.871094 C 186.4375 193.535156 186.246094 193.175781 186.089844 192.800781 C 185.933594 192.421875 185.816406 192.035156 185.738281 191.632812 C 185.65625 191.234375 185.617188 190.832031 185.617188 190.421875 Z M 185.617188 190.421875 " fill-opacity="1" fill-rule="nonzero"/><path fill="#decdff" d="M 1.550781 220.589844 C 1.550781 220.179688 1.589844 219.777344 1.667969 219.378906 C 1.75 218.976562 1.867188 218.589844 2.023438 218.210938 C 2.179688 217.835938 2.371094 217.476562 2.597656 217.140625 C 2.824219 216.800781 3.082031 216.484375 3.367188 216.199219 C 3.65625 215.910156 3.972656 215.652344 4.308594 215.425781 C 4.648438 215.199219 5.007812 215.007812 5.382812 214.851562 C 5.761719 214.695312 6.148438 214.578125 6.546875 214.5 C 6.949219 214.417969 7.351562 214.378906 7.761719 214.378906 C 8.167969 214.378906 8.570312 214.417969 8.972656 214.5 C 9.371094 214.578125 9.757812 214.695312 10.136719 214.851562 C 10.511719 215.007812 10.871094 215.199219 11.210938 215.425781 C 11.550781 215.652344 11.863281 215.910156 12.152344 216.199219 C 12.4375 216.484375 12.695312 216.800781 12.921875 217.140625 C 13.148438 217.476562 13.339844 217.835938 13.496094 218.210938 C 13.652344 218.589844 13.769531 218.976562 13.851562 219.378906 C 13.929688 219.777344 13.96875 220.179688 13.96875 220.589844 C 13.96875 220.996094 13.929688 221.402344 13.851562 221.800781 C 13.769531 222.199219 13.652344 222.589844 13.496094 222.964844 C 13.339844 223.34375 13.148438 223.699219 12.921875 224.039062 C 12.695312 224.378906 12.4375 224.691406 12.152344 224.980469 C 11.863281 225.269531 11.550781 225.527344 11.210938 225.753906 C 10.871094 225.980469 10.511719 226.167969 10.136719 226.324219 C 9.757812 226.480469 9.371094 226.601562 8.972656 226.679688 C 8.570312 226.757812 8.167969 226.796875 7.761719 226.796875 C 7.351562 226.796875 6.949219 226.757812 6.546875 226.679688 C 6.148438 226.601562 5.761719 226.480469 5.382812 226.324219 C 5.007812 226.167969 4.648438 225.980469 4.308594 225.753906 C 3.972656 225.527344 3.65625 225.269531 3.371094 224.980469 C 3.082031 224.691406 2.824219 224.378906 2.597656 224.039062 C 2.371094 223.699219 2.179688 223.34375 2.023438 222.964844 C 1.867188 222.589844 1.75 222.199219 1.667969 221.800781 C 1.589844 221.402344 1.550781 220.996094 1.550781 220.589844 Z M 1.550781 220.589844 " fill-opacity="1" fill-rule="nonzero"/><path fill="#decdff" d="M 32.207031 220.589844 C 32.207031 220.179688 32.246094 219.777344 32.324219 219.378906 C 32.40625 218.976562 32.523438 218.589844 32.679688 218.210938 C 32.835938 217.835938 33.027344 217.476562 33.253906 217.140625 C 33.480469 216.800781 33.738281 216.484375 34.023438 216.199219 C 34.3125 215.910156 34.628906 215.652344 34.964844 215.425781 C 35.304688 215.199219 35.664062 215.007812 36.039062 214.851562 C 36.417969 214.695312 36.804688 214.578125 37.203125 214.5 C 37.605469 214.417969 38.007812 214.378906 38.417969 214.378906 C 38.824219 214.378906 39.226562 214.417969 39.628906 214.5 C 40.027344 214.578125 40.414062 214.695312 40.792969 214.851562 C 41.167969 215.007812 41.527344 215.199219 41.867188 215.425781 C 42.207031 215.652344 42.519531 215.910156 42.808594 216.199219 C 43.09375 216.484375 43.351562 216.800781 43.578125 217.140625 C 43.804688 217.476562 43.996094 217.835938 44.152344 218.210938 C 44.308594 218.589844 44.425781 218.976562 44.507812 219.378906 C 44.585938 219.777344 44.625 220.179688 44.625 220.589844 C 44.625 220.996094 44.585938 221.402344 44.507812 221.800781 C 44.425781 222.199219 44.308594 222.589844 44.152344 222.964844 C 43.996094 223.34375 43.804688 223.699219 43.578125 224.039062 C 43.351562 224.378906 43.09375 224.691406 42.808594 224.980469 C 42.519531 225.269531 42.207031 225.527344 41.867188 225.753906 C 41.527344 225.980469 41.167969 226.167969 40.792969 226.324219 C 40.414062 226.480469 40.027344 226.601562 39.628906 226.679688 C 39.226562 226.757812 38.824219 226.796875 38.417969 226.796875 C 38.007812 226.796875 37.605469 226.757812 37.203125 226.679688 C 36.804688 226.601562 36.417969 226.480469 36.039062 226.324219 C 35.664062 226.167969 35.304688 225.980469 34.964844 225.753906 C 34.628906 225.527344 34.3125 225.269531 34.023438 224.980469 C 33.738281 224.691406 33.480469 224.378906 33.253906 224.039062 C 33.027344 223.699219 32.835938 223.34375 32.679688 222.964844 C 32.523438 222.589844 32.40625 222.199219 32.324219 221.800781 C 32.246094 221.402344 32.207031 220.996094 32.207031 220.589844 Z M 32.207031 220.589844 " fill-opacity="1" fill-rule="nonzero"/><path fill="#decdff" d="M 62.894531 220.589844 C 62.894531 220.179688 62.933594 219.777344 63.015625 219.378906 C 63.09375 218.976562 63.210938 218.589844 63.367188 218.210938 C 63.523438 217.835938 63.714844 217.476562 63.941406 217.140625 C 64.167969 216.800781 64.425781 216.484375 64.714844 216.199219 C 65.003906 215.910156 65.316406 215.652344 65.65625 215.425781 C 65.996094 215.199219 66.351562 215.007812 66.730469 214.851562 C 67.105469 214.695312 67.492188 214.578125 67.894531 214.5 C 68.292969 214.417969 68.699219 214.378906 69.105469 214.378906 C 69.511719 214.378906 69.917969 214.417969 70.316406 214.5 C 70.714844 214.578125 71.105469 214.695312 71.480469 214.851562 C 71.859375 215.007812 72.214844 215.199219 72.554688 215.425781 C 72.894531 215.652344 73.207031 215.910156 73.496094 216.199219 C 73.785156 216.484375 74.042969 216.800781 74.269531 217.140625 C 74.496094 217.476562 74.6875 217.835938 74.84375 218.210938 C 75 218.589844 75.117188 218.976562 75.195312 219.378906 C 75.273438 219.777344 75.316406 220.179688 75.316406 220.589844 C 75.316406 220.996094 75.273438 221.402344 75.195312 221.800781 C 75.117188 222.199219 75 222.589844 74.84375 222.964844 C 74.6875 223.34375 74.496094 223.699219 74.269531 224.039062 C 74.042969 224.378906 73.785156 224.691406 73.496094 224.980469 C 73.207031 225.269531 72.894531 225.527344 72.554688 225.753906 C 72.214844 225.980469 71.859375 226.167969 71.480469 226.324219 C 71.105469 226.480469 70.714844 226.601562 70.316406 226.679688 C 69.917969 226.757812 69.511719 226.796875 69.105469 226.796875 C 68.699219 226.796875 68.292969 226.757812 67.894531 226.679688 C 67.492188 226.601562 67.105469 226.480469 66.730469 226.324219 C 66.351562 226.167969 65.996094 225.980469 65.65625 225.753906 C 65.316406 225.527344 65.003906 225.269531 64.714844 224.980469 C 64.425781 224.691406 64.167969 224.378906 63.941406 224.039062 C 63.714844 223.699219 63.523438 223.34375 63.367188 222.964844 C 63.210938 222.589844 63.09375 222.199219 63.015625 221.800781 C 62.933594 221.402344 62.894531 220.996094 62.894531 220.589844 Z M 62.894531 220.589844 " fill-opacity="1" fill-rule="nonzero"/><path fill="#decdff" d="M 93.585938 220.589844 C 93.585938 220.179688 93.625 219.777344 93.703125 219.378906 C 93.785156 218.976562 93.902344 218.589844 94.058594 218.210938 C 94.214844 217.835938 94.40625 217.476562 94.632812 217.140625 C 94.855469 216.800781 95.113281 216.484375 95.402344 216.199219 C 95.691406 215.910156 96.003906 215.652344 96.34375 215.425781 C 96.683594 215.199219 97.039062 215.007812 97.417969 214.851562 C 97.792969 214.695312 98.183594 214.578125 98.582031 214.5 C 98.984375 214.417969 99.386719 214.378906 99.792969 214.378906 C 100.203125 214.378906 100.605469 214.417969 101.003906 214.5 C 101.40625 214.578125 101.792969 214.695312 102.171875 214.851562 C 102.546875 215.007812 102.90625 215.199219 103.242188 215.425781 C 103.582031 215.652344 103.898438 215.910156 104.183594 216.199219 C 104.472656 216.484375 104.730469 216.800781 104.957031 217.140625 C 105.183594 217.476562 105.375 217.835938 105.53125 218.210938 C 105.6875 218.589844 105.804688 218.976562 105.882812 219.378906 C 105.964844 219.777344 106.003906 220.179688 106.003906 220.589844 C 106.003906 220.996094 105.964844 221.402344 105.882812 221.800781 C 105.804688 222.199219 105.6875 222.589844 105.53125 222.964844 C 105.375 223.34375 105.183594 223.699219 104.957031 224.039062 C 104.730469 224.378906 104.472656 224.691406 104.183594 224.980469 C 103.898438 225.269531 103.582031 225.527344 103.242188 225.753906 C 102.90625 225.980469 102.546875 226.167969 102.171875 226.324219 C 101.792969 226.480469 101.40625 226.601562 101.003906 226.679688 C 100.605469 226.757812 100.203125 226.796875 99.792969 226.796875 C 99.386719 226.796875 98.984375 226.757812 98.582031 226.679688 C 98.183594 226.601562 97.792969 226.480469 97.417969 226.324219 C 97.039062 226.167969 96.683594 225.980469 96.34375 225.753906 C 96.003906 225.527344 95.691406 225.269531 95.402344 224.980469 C 95.113281 224.691406 94.855469 224.378906 94.632812 224.039062 C 94.40625 223.699219 94.214844 223.34375 94.058594 222.964844 C 93.902344 222.589844 93.785156 222.199219 93.703125 221.800781 C 93.625 221.402344 93.585938 220.996094 93.585938 220.589844 Z M 93.585938 220.589844 " fill-opacity="1" fill-rule="nonzero"/><path fill="#decdff" d="M 124.242188 220.589844 C 124.242188 220.179688 124.28125 219.777344 124.359375 219.378906 C 124.4375 218.976562 124.558594 218.589844 124.714844 218.210938 C 124.871094 217.835938 125.0625 217.476562 125.285156 217.140625 C 125.511719 216.800781 125.769531 216.484375 126.058594 216.199219 C 126.347656 215.910156 126.660156 215.652344 127 215.425781 C 127.339844 215.199219 127.695312 215.007812 128.074219 214.851562 C 128.449219 214.695312 128.839844 214.578125 129.238281 214.5 C 129.640625 214.417969 130.042969 214.378906 130.449219 214.378906 C 130.859375 214.378906 131.261719 214.417969 131.660156 214.5 C 132.0625 214.578125 132.449219 214.695312 132.828125 214.851562 C 133.203125 215.007812 133.5625 215.199219 133.898438 215.425781 C 134.238281 215.652344 134.554688 215.910156 134.839844 216.199219 C 135.128906 216.484375 135.386719 216.800781 135.613281 217.140625 C 135.839844 217.476562 136.03125 217.835938 136.1875 218.210938 C 136.34375 218.589844 136.460938 218.976562 136.539062 219.378906 C 136.621094 219.777344 136.660156 220.179688 136.660156 220.589844 C 136.660156 220.996094 136.621094 221.402344 136.539062 221.800781 C 136.460938 222.199219 136.34375 222.589844 136.1875 222.964844 C 136.03125 223.34375 135.839844 223.699219 135.613281 224.039062 C 135.386719 224.378906 135.128906 224.691406 134.839844 224.980469 C 134.554688 225.269531 134.238281 225.527344 133.898438 225.753906 C 133.5625 225.980469 133.203125 226.167969 132.828125 226.324219 C 132.449219 226.480469 132.0625 226.601562 131.660156 226.679688 C 131.261719 226.757812 130.859375 226.796875 130.449219 226.796875 C 130.042969 226.796875 129.640625 226.757812 129.238281 226.679688 C 128.839844 226.601562 128.449219 226.480469 128.074219 226.324219 C 127.695312 226.167969 127.339844 225.980469 127 225.753906 C 126.660156 225.527344 126.347656 225.269531 126.058594 224.980469 C 125.769531 224.691406 125.511719 224.378906 125.289062 224.039062 C 125.0625 223.699219 124.871094 223.34375 124.714844 222.964844 C 124.558594 222.589844 124.441406 222.199219 124.359375 221.800781 C 124.28125 221.402344 124.242188 220.996094 124.242188 220.589844 Z M 124.242188 220.589844 " fill-opacity="1" fill-rule="nonzero"/><path fill="#decdff" d="M 154.929688 220.589844 C 154.929688 220.179688 154.96875 219.777344 155.046875 219.378906 C 155.128906 218.976562 155.246094 218.589844 155.402344 218.210938 C 155.558594 217.835938 155.75 217.476562 155.976562 217.140625 C 156.203125 216.800781 156.460938 216.484375 156.75 216.199219 C 157.035156 215.910156 157.351562 215.652344 157.6875 215.425781 C 158.027344 215.199219 158.386719 215.007812 158.761719 214.851562 C 159.140625 214.695312 159.527344 214.578125 159.925781 214.5 C 160.328125 214.417969 160.730469 214.378906 161.140625 214.378906 C 161.546875 214.378906 161.949219 214.417969 162.351562 214.5 C 162.75 214.578125 163.140625 214.695312 163.515625 214.851562 C 163.890625 215.007812 164.25 215.199219 164.589844 215.425781 C 164.929688 215.652344 165.242188 215.910156 165.53125 216.199219 C 165.820312 216.484375 166.074219 216.800781 166.300781 217.140625 C 166.527344 217.476562 166.71875 217.835938 166.875 218.210938 C 167.03125 218.589844 167.148438 218.976562 167.230469 219.378906 C 167.308594 219.777344 167.347656 220.179688 167.347656 220.589844 C 167.347656 220.996094 167.308594 221.402344 167.230469 221.800781 C 167.148438 222.199219 167.03125 222.589844 166.875 222.964844 C 166.71875 223.34375 166.527344 223.699219 166.300781 224.039062 C 166.074219 224.378906 165.820312 224.691406 165.53125 224.980469 C 165.242188 225.269531 164.929688 225.527344 164.589844 225.753906 C 164.25 225.980469 163.890625 226.167969 163.515625 226.324219 C 163.140625 226.480469 162.75 226.601562 162.351562 226.679688 C 161.949219 226.757812 161.546875 226.796875 161.140625 226.796875 C 160.730469 226.796875 160.328125 226.757812 159.925781 226.679688 C 159.527344 226.601562 159.140625 226.480469 158.761719 226.324219 C 158.386719 226.167969 158.027344 225.980469 157.6875 225.753906 C 157.351562 225.527344 157.035156 225.269531 156.75 224.980469 C 156.460938 224.691406 156.203125 224.378906 155.976562 224.039062 C 155.75 223.699219 155.558594 223.34375 155.402344 222.964844 C 155.246094 222.589844 155.128906 222.199219 155.046875 221.800781 C 154.96875 221.402344 154.929688 220.996094 154.929688 220.589844 Z M 154.929688 220.589844 " fill-opacity="1" fill-rule="nonzero"/><path fill="#decdff" d="M 185.617188 220.589844 C 185.617188 220.179688 185.65625 219.777344 185.738281 219.378906 C 185.816406 218.976562 185.933594 218.589844 186.089844 218.210938 C 186.246094 217.835938 186.4375 217.476562 186.664062 217.140625 C 186.890625 216.800781 187.148438 216.484375 187.4375 216.199219 C 187.726562 215.910156 188.039062 215.652344 188.378906 215.425781 C 188.71875 215.199219 189.074219 215.007812 189.453125 214.851562 C 189.828125 214.695312 190.214844 214.578125 190.617188 214.5 C 191.015625 214.417969 191.421875 214.378906 191.828125 214.378906 C 192.234375 214.378906 192.640625 214.417969 193.039062 214.5 C 193.4375 214.578125 193.828125 214.695312 194.203125 214.851562 C 194.582031 215.007812 194.9375 215.199219 195.277344 215.425781 C 195.617188 215.652344 195.929688 215.910156 196.21875 216.199219 C 196.507812 216.484375 196.765625 216.800781 196.992188 217.140625 C 197.21875 217.476562 197.410156 217.835938 197.566406 218.210938 C 197.722656 218.589844 197.839844 218.976562 197.917969 219.378906 C 197.996094 219.777344 198.039062 220.179688 198.039062 220.589844 C 198.039062 220.996094 197.996094 221.402344 197.917969 221.800781 C 197.839844 222.199219 197.722656 222.589844 197.566406 222.964844 C 197.410156 223.34375 197.21875 223.699219 196.992188 224.039062 C 196.765625 224.378906 196.507812 224.691406 196.21875 224.980469 C 195.929688 225.269531 195.617188 225.527344 195.277344 225.753906 C 194.9375 225.980469 194.582031 226.167969 194.203125 226.324219 C 193.828125 226.480469 193.4375 226.601562 193.039062 226.679688 C 192.640625 226.757812 192.234375 226.796875 191.828125 226.796875 C 191.421875 226.796875 191.015625 226.757812 190.617188 226.679688 C 190.214844 226.601562 189.828125 226.480469 189.453125 226.324219 C 189.074219 226.167969 188.71875 225.980469 188.378906 225.753906 C 188.039062 225.527344 187.726562 225.269531 187.4375 224.980469 C 187.148438 224.691406 186.890625 224.378906 186.664062 224.039062 C 186.4375 223.699219 186.246094 223.34375 186.089844 222.964844 C 185.933594 222.589844 185.816406 222.199219 185.738281 221.800781 C 185.65625 221.402344 185.617188 220.996094 185.617188 220.589844 Z M 185.617188 220.589844 " fill-opacity="1" fill-rule="nonzero"/><path fill="#decdff" d="M 216.273438 220.589844 C 216.273438 220.179688 216.3125 219.777344 216.394531 219.378906 C 216.472656 218.976562 216.589844 218.589844 216.746094 218.210938 C 216.902344 217.835938 217.09375 217.476562 217.320312 217.140625 C 217.546875 216.800781 217.804688 216.484375 218.09375 216.199219 C 218.382812 215.910156 218.695312 215.652344 219.035156 215.425781 C 219.375 215.199219 219.730469 215.007812 220.109375 214.851562 C 220.484375 214.695312 220.871094 214.578125 221.273438 214.5 C 221.671875 214.417969 222.078125 214.378906 222.484375 214.378906 C 222.890625 214.378906 223.296875 214.417969 223.695312 214.5 C 224.09375 214.578125 224.484375 214.695312 224.859375 214.851562 C 225.238281 215.007812 225.59375 215.199219 225.933594 215.425781 C 226.273438 215.652344 226.585938 215.910156 226.875 216.199219 C 227.164062 216.484375 227.421875 216.800781 227.648438 217.140625 C 227.875 217.476562 228.066406 217.835938 228.222656 218.210938 C 228.378906 218.589844 228.496094 218.976562 228.574219 219.378906 C 228.652344 219.777344 228.695312 220.179688 228.695312 220.589844 C 228.695312 220.996094 228.652344 221.402344 228.574219 221.800781 C 228.496094 222.199219 228.378906 222.589844 228.222656 222.964844 C 228.066406 223.34375 227.875 223.699219 227.648438 224.039062 C 227.421875 224.378906 227.164062 224.691406 226.875 224.980469 C 226.585938 225.269531 226.273438 225.527344 225.933594 225.753906 C 225.59375 225.980469 225.238281 226.167969 224.859375 226.324219 C 224.484375 226.480469 224.09375 226.601562 223.695312 226.679688 C 223.296875 226.757812 222.890625 226.796875 222.484375 226.796875 C 222.078125 226.796875 221.671875 226.757812 221.273438 226.679688 C 220.871094 226.601562 220.484375 226.480469 220.109375 226.324219 C 219.730469 226.167969 219.375 225.980469 219.035156 225.753906 C 218.695312 225.527344 218.382812 225.269531 218.09375 224.980469 C 217.804688 224.691406 217.546875 224.378906 217.320312 224.039062 C 217.09375 223.699219 216.902344 223.34375 216.746094 222.964844 C 216.589844 222.589844 216.472656 222.199219 216.394531 221.800781 C 216.3125 221.402344 216.273438 220.996094 216.273438 220.589844 Z M 216.273438 220.589844 " fill-opacity="1" fill-rule="nonzero"/></g></g><g clip-path="url(#d6c9d46916)"><path fill="#5f73e5" d="M 84.40625 877.242188 L -126.21875 877.242188 L -73.371094 824.335938 L 43.722656 707.304688 L 149.0625 812.585938 Z M 84.40625 877.242188 " fill-opacity="1" fill-rule="nonzero"/></g><g clip-path="url(#02aa2878d2)"><path fill="#decdff" d="M 295.027344 877.242188 L 84.40625 877.242188 L 189.6875 771.960938 Z M 295.027344 877.242188 " fill-opacity="1" fill-rule="nonzero"/></g><g clip-path="url(#c7063749d8)"><g transform="matrix(1, 0, 0, 1, 0.000000000000000056, 0)"><g clip-path="url(#61738ca347)"><g clip-path="url(#4a5620a9c1)"><path fill="#decdff" d="M -103.960938 227.15625 L -103.960938 -103.464844 L 226.660156 -103.464844 Z M -103.960938 227.15625 " fill-opacity="1" fill-rule="nonzero"/></g><g clip-path="url(#5fa68a01dd)"><path fill="#5f73e5" d="M -103.960938 295.515625 L -103.960938 250.367188 L 249.871094 -103.464844 L 295.019531 -103.464844 Z M -103.960938 295.515625 " fill-opacity="1" fill-rule="nonzero"/></g><g clip-path="url(#db8481ffc1)"><path fill="#5f73e5" d="M -103.960938 353.980469 L -103.960938 308.914062 L 44 160.953125 L 44 206.097656 Z M -103.960938 353.980469 " fill-opacity="1" fill-rule="nonzero"/></g></g></g></g></svg>